<mxfile host="app.diagrams.net" modified="2024-03-20T18:55:42.028Z" agent="Mozilla/5.0 (Windows NT 10.0; Win64; x64) AppleWebKit/537.36 (KHTML, like Gecko) Chrome/122.0.0.0 Safari/537.36" etag="Tc5wfpgyVJJZBIOsRyHl" version="24.0.7" type="device">
  <diagram name="Page-1" id="WaQq8A3NMiJLRy0TsfYY">
    <mxGraphModel dx="1167" dy="686" grid="1" gridSize="10" guides="1" tooltips="1" connect="1" arrows="1" fold="1" page="1" pageScale="1" pageWidth="850" pageHeight="1100" math="0" shadow="0">
      <root>
        <mxCell id="0" />
        <mxCell id="1" parent="0" />
        <mxCell id="M1Bvxkw2taFCZ_IBdg_y-80" value="" style="rounded=0;whiteSpace=wrap;html=1;fillColor=#f8cecc;strokeColor=#b85450;" parent="1" vertex="1">
          <mxGeometry x="340" y="170" width="224" height="500" as="geometry" />
        </mxCell>
        <mxCell id="M1Bvxkw2taFCZ_IBdg_y-77" value="" style="rounded=0;whiteSpace=wrap;html=1;fillColor=#fff2cc;strokeColor=#d6b656;" parent="1" vertex="1">
          <mxGeometry x="270" y="160" width="40" height="350" as="geometry" />
        </mxCell>
        <mxCell id="M1Bvxkw2taFCZ_IBdg_y-75" value="" style="rounded=0;whiteSpace=wrap;html=1;fillColor=#dae8fc;strokeColor=#6c8ebf;" parent="1" vertex="1">
          <mxGeometry x="591.5" y="290" width="40" height="490" as="geometry" />
        </mxCell>
        <mxCell id="M1Bvxkw2taFCZ_IBdg_y-1" value="0" style="ellipse;whiteSpace=wrap;html=1;aspect=fixed;" parent="1" vertex="1">
          <mxGeometry x="601.5" y="340" width="20" height="20" as="geometry" />
        </mxCell>
        <mxCell id="M1Bvxkw2taFCZ_IBdg_y-3" value="1" style="ellipse;whiteSpace=wrap;html=1;aspect=fixed;" parent="1" vertex="1">
          <mxGeometry x="601.5" y="380" width="20" height="20" as="geometry" />
        </mxCell>
        <mxCell id="M1Bvxkw2taFCZ_IBdg_y-4" value="2" style="ellipse;whiteSpace=wrap;html=1;aspect=fixed;" parent="1" vertex="1">
          <mxGeometry x="601.5" y="420" width="20" height="20" as="geometry" />
        </mxCell>
        <mxCell id="M1Bvxkw2taFCZ_IBdg_y-5" value="3" style="ellipse;whiteSpace=wrap;html=1;aspect=fixed;" parent="1" vertex="1">
          <mxGeometry x="601.5" y="460" width="20" height="20" as="geometry" />
        </mxCell>
        <mxCell id="M1Bvxkw2taFCZ_IBdg_y-6" value="4" style="ellipse;whiteSpace=wrap;html=1;aspect=fixed;" parent="1" vertex="1">
          <mxGeometry x="601.5" y="500" width="20" height="20" as="geometry" />
        </mxCell>
        <mxCell id="M1Bvxkw2taFCZ_IBdg_y-7" value="5" style="ellipse;whiteSpace=wrap;html=1;aspect=fixed;" parent="1" vertex="1">
          <mxGeometry x="601.5" y="540" width="20" height="20" as="geometry" />
        </mxCell>
        <mxCell id="M1Bvxkw2taFCZ_IBdg_y-8" value="6" style="ellipse;whiteSpace=wrap;html=1;aspect=fixed;" parent="1" vertex="1">
          <mxGeometry x="601.5" y="580" width="20" height="20" as="geometry" />
        </mxCell>
        <mxCell id="M1Bvxkw2taFCZ_IBdg_y-9" value="7" style="ellipse;whiteSpace=wrap;html=1;aspect=fixed;" parent="1" vertex="1">
          <mxGeometry x="601.5" y="620" width="20" height="20" as="geometry" />
        </mxCell>
        <mxCell id="M1Bvxkw2taFCZ_IBdg_y-10" value="8" style="ellipse;whiteSpace=wrap;html=1;aspect=fixed;" parent="1" vertex="1">
          <mxGeometry x="601.5" y="660" width="20" height="20" as="geometry" />
        </mxCell>
        <mxCell id="M1Bvxkw2taFCZ_IBdg_y-11" value="9" style="ellipse;whiteSpace=wrap;html=1;aspect=fixed;" parent="1" vertex="1">
          <mxGeometry x="601.5" y="700" width="20" height="20" as="geometry" />
        </mxCell>
        <mxCell id="M1Bvxkw2taFCZ_IBdg_y-257" style="rounded=0;orthogonalLoop=1;jettySize=auto;html=1;entryX=0;entryY=0.5;entryDx=0;entryDy=0;endArrow=none;endFill=0;" parent="1" source="M1Bvxkw2taFCZ_IBdg_y-12" target="M1Bvxkw2taFCZ_IBdg_y-1" edge="1">
          <mxGeometry relative="1" as="geometry" />
        </mxCell>
        <mxCell id="M1Bvxkw2taFCZ_IBdg_y-258" style="rounded=0;orthogonalLoop=1;jettySize=auto;html=1;entryX=0;entryY=0.5;entryDx=0;entryDy=0;endArrow=none;endFill=0;" parent="1" source="M1Bvxkw2taFCZ_IBdg_y-12" target="M1Bvxkw2taFCZ_IBdg_y-3" edge="1">
          <mxGeometry relative="1" as="geometry" />
        </mxCell>
        <mxCell id="M1Bvxkw2taFCZ_IBdg_y-259" style="rounded=0;orthogonalLoop=1;jettySize=auto;html=1;entryX=0;entryY=0.5;entryDx=0;entryDy=0;endArrow=none;endFill=0;" parent="1" source="M1Bvxkw2taFCZ_IBdg_y-12" target="M1Bvxkw2taFCZ_IBdg_y-4" edge="1">
          <mxGeometry relative="1" as="geometry" />
        </mxCell>
        <mxCell id="M1Bvxkw2taFCZ_IBdg_y-260" style="rounded=0;orthogonalLoop=1;jettySize=auto;html=1;entryX=0;entryY=0.5;entryDx=0;entryDy=0;endArrow=none;endFill=0;" parent="1" source="M1Bvxkw2taFCZ_IBdg_y-12" target="M1Bvxkw2taFCZ_IBdg_y-5" edge="1">
          <mxGeometry relative="1" as="geometry" />
        </mxCell>
        <mxCell id="M1Bvxkw2taFCZ_IBdg_y-261" style="rounded=0;orthogonalLoop=1;jettySize=auto;html=1;entryX=0;entryY=0.5;entryDx=0;entryDy=0;endArrow=none;endFill=0;" parent="1" source="M1Bvxkw2taFCZ_IBdg_y-12" target="M1Bvxkw2taFCZ_IBdg_y-6" edge="1">
          <mxGeometry relative="1" as="geometry" />
        </mxCell>
        <mxCell id="M1Bvxkw2taFCZ_IBdg_y-262" style="rounded=0;orthogonalLoop=1;jettySize=auto;html=1;entryX=0;entryY=0.5;entryDx=0;entryDy=0;endArrow=none;endFill=0;" parent="1" source="M1Bvxkw2taFCZ_IBdg_y-12" target="M1Bvxkw2taFCZ_IBdg_y-7" edge="1">
          <mxGeometry relative="1" as="geometry" />
        </mxCell>
        <mxCell id="M1Bvxkw2taFCZ_IBdg_y-263" style="rounded=0;orthogonalLoop=1;jettySize=auto;html=1;entryX=0;entryY=0.5;entryDx=0;entryDy=0;endArrow=none;endFill=0;" parent="1" source="M1Bvxkw2taFCZ_IBdg_y-12" target="M1Bvxkw2taFCZ_IBdg_y-8" edge="1">
          <mxGeometry relative="1" as="geometry" />
        </mxCell>
        <mxCell id="M1Bvxkw2taFCZ_IBdg_y-264" style="rounded=0;orthogonalLoop=1;jettySize=auto;html=1;entryX=0;entryY=0.5;entryDx=0;entryDy=0;endArrow=none;endFill=0;" parent="1" source="M1Bvxkw2taFCZ_IBdg_y-12" target="M1Bvxkw2taFCZ_IBdg_y-9" edge="1">
          <mxGeometry relative="1" as="geometry" />
        </mxCell>
        <mxCell id="M1Bvxkw2taFCZ_IBdg_y-265" style="rounded=0;orthogonalLoop=1;jettySize=auto;html=1;entryX=0;entryY=0.5;entryDx=0;entryDy=0;endArrow=none;endFill=0;" parent="1" source="M1Bvxkw2taFCZ_IBdg_y-12" target="M1Bvxkw2taFCZ_IBdg_y-10" edge="1">
          <mxGeometry relative="1" as="geometry" />
        </mxCell>
        <mxCell id="M1Bvxkw2taFCZ_IBdg_y-266" style="rounded=0;orthogonalLoop=1;jettySize=auto;html=1;entryX=0;entryY=0.5;entryDx=0;entryDy=0;endArrow=none;endFill=0;" parent="1" source="M1Bvxkw2taFCZ_IBdg_y-12" target="M1Bvxkw2taFCZ_IBdg_y-11" edge="1">
          <mxGeometry relative="1" as="geometry" />
        </mxCell>
        <mxCell id="M1Bvxkw2taFCZ_IBdg_y-12" value="0" style="ellipse;whiteSpace=wrap;html=1;aspect=fixed;" parent="1" vertex="1">
          <mxGeometry x="526.5" y="300" width="20" height="20" as="geometry" />
        </mxCell>
        <mxCell id="M1Bvxkw2taFCZ_IBdg_y-267" style="rounded=0;orthogonalLoop=1;jettySize=auto;html=1;entryX=0;entryY=0.5;entryDx=0;entryDy=0;endArrow=none;endFill=0;" parent="1" source="M1Bvxkw2taFCZ_IBdg_y-13" target="M1Bvxkw2taFCZ_IBdg_y-1" edge="1">
          <mxGeometry relative="1" as="geometry" />
        </mxCell>
        <mxCell id="M1Bvxkw2taFCZ_IBdg_y-268" style="rounded=0;orthogonalLoop=1;jettySize=auto;html=1;entryX=0;entryY=0.5;entryDx=0;entryDy=0;endArrow=none;endFill=0;" parent="1" source="M1Bvxkw2taFCZ_IBdg_y-13" target="M1Bvxkw2taFCZ_IBdg_y-3" edge="1">
          <mxGeometry relative="1" as="geometry" />
        </mxCell>
        <mxCell id="M1Bvxkw2taFCZ_IBdg_y-269" style="rounded=0;orthogonalLoop=1;jettySize=auto;html=1;entryX=0;entryY=0.5;entryDx=0;entryDy=0;endArrow=none;endFill=0;" parent="1" source="M1Bvxkw2taFCZ_IBdg_y-13" target="M1Bvxkw2taFCZ_IBdg_y-4" edge="1">
          <mxGeometry relative="1" as="geometry" />
        </mxCell>
        <mxCell id="M1Bvxkw2taFCZ_IBdg_y-270" style="rounded=0;orthogonalLoop=1;jettySize=auto;html=1;entryX=0;entryY=0.5;entryDx=0;entryDy=0;endArrow=none;endFill=0;" parent="1" source="M1Bvxkw2taFCZ_IBdg_y-13" target="M1Bvxkw2taFCZ_IBdg_y-5" edge="1">
          <mxGeometry relative="1" as="geometry" />
        </mxCell>
        <mxCell id="M1Bvxkw2taFCZ_IBdg_y-271" style="rounded=0;orthogonalLoop=1;jettySize=auto;html=1;entryX=0;entryY=0.5;entryDx=0;entryDy=0;endArrow=none;endFill=0;" parent="1" source="M1Bvxkw2taFCZ_IBdg_y-13" target="M1Bvxkw2taFCZ_IBdg_y-6" edge="1">
          <mxGeometry relative="1" as="geometry" />
        </mxCell>
        <mxCell id="M1Bvxkw2taFCZ_IBdg_y-272" style="rounded=0;orthogonalLoop=1;jettySize=auto;html=1;entryX=0;entryY=0.5;entryDx=0;entryDy=0;endArrow=none;endFill=0;" parent="1" source="M1Bvxkw2taFCZ_IBdg_y-13" target="M1Bvxkw2taFCZ_IBdg_y-7" edge="1">
          <mxGeometry relative="1" as="geometry" />
        </mxCell>
        <mxCell id="M1Bvxkw2taFCZ_IBdg_y-273" style="rounded=0;orthogonalLoop=1;jettySize=auto;html=1;entryX=0;entryY=0.5;entryDx=0;entryDy=0;endArrow=none;endFill=0;" parent="1" source="M1Bvxkw2taFCZ_IBdg_y-13" target="M1Bvxkw2taFCZ_IBdg_y-8" edge="1">
          <mxGeometry relative="1" as="geometry" />
        </mxCell>
        <mxCell id="M1Bvxkw2taFCZ_IBdg_y-274" style="rounded=0;orthogonalLoop=1;jettySize=auto;html=1;entryX=0;entryY=0.5;entryDx=0;entryDy=0;endArrow=none;endFill=0;" parent="1" source="M1Bvxkw2taFCZ_IBdg_y-13" target="M1Bvxkw2taFCZ_IBdg_y-9" edge="1">
          <mxGeometry relative="1" as="geometry" />
        </mxCell>
        <mxCell id="M1Bvxkw2taFCZ_IBdg_y-275" style="rounded=0;orthogonalLoop=1;jettySize=auto;html=1;entryX=0;entryY=0.5;entryDx=0;entryDy=0;endArrow=none;endFill=0;" parent="1" source="M1Bvxkw2taFCZ_IBdg_y-13" target="M1Bvxkw2taFCZ_IBdg_y-10" edge="1">
          <mxGeometry relative="1" as="geometry" />
        </mxCell>
        <mxCell id="M1Bvxkw2taFCZ_IBdg_y-276" style="rounded=0;orthogonalLoop=1;jettySize=auto;html=1;entryX=0;entryY=0.5;entryDx=0;entryDy=0;endArrow=none;endFill=0;" parent="1" source="M1Bvxkw2taFCZ_IBdg_y-13" target="M1Bvxkw2taFCZ_IBdg_y-11" edge="1">
          <mxGeometry relative="1" as="geometry" />
        </mxCell>
        <mxCell id="M1Bvxkw2taFCZ_IBdg_y-13" value="1" style="ellipse;whiteSpace=wrap;html=1;aspect=fixed;" parent="1" vertex="1">
          <mxGeometry x="526.5" y="340" width="20" height="20" as="geometry" />
        </mxCell>
        <mxCell id="M1Bvxkw2taFCZ_IBdg_y-277" style="rounded=0;orthogonalLoop=1;jettySize=auto;html=1;entryX=0;entryY=0.5;entryDx=0;entryDy=0;endArrow=none;endFill=0;" parent="1" source="M1Bvxkw2taFCZ_IBdg_y-14" target="M1Bvxkw2taFCZ_IBdg_y-1" edge="1">
          <mxGeometry relative="1" as="geometry" />
        </mxCell>
        <mxCell id="M1Bvxkw2taFCZ_IBdg_y-278" style="rounded=0;orthogonalLoop=1;jettySize=auto;html=1;entryX=0;entryY=0.5;entryDx=0;entryDy=0;endArrow=none;endFill=0;" parent="1" source="M1Bvxkw2taFCZ_IBdg_y-14" target="M1Bvxkw2taFCZ_IBdg_y-3" edge="1">
          <mxGeometry relative="1" as="geometry" />
        </mxCell>
        <mxCell id="M1Bvxkw2taFCZ_IBdg_y-279" style="rounded=0;orthogonalLoop=1;jettySize=auto;html=1;entryX=0;entryY=0.5;entryDx=0;entryDy=0;endArrow=none;endFill=0;" parent="1" source="M1Bvxkw2taFCZ_IBdg_y-14" target="M1Bvxkw2taFCZ_IBdg_y-4" edge="1">
          <mxGeometry relative="1" as="geometry" />
        </mxCell>
        <mxCell id="M1Bvxkw2taFCZ_IBdg_y-280" style="rounded=0;orthogonalLoop=1;jettySize=auto;html=1;entryX=0;entryY=0.5;entryDx=0;entryDy=0;endArrow=none;endFill=0;" parent="1" source="M1Bvxkw2taFCZ_IBdg_y-14" target="M1Bvxkw2taFCZ_IBdg_y-5" edge="1">
          <mxGeometry relative="1" as="geometry" />
        </mxCell>
        <mxCell id="M1Bvxkw2taFCZ_IBdg_y-281" style="rounded=0;orthogonalLoop=1;jettySize=auto;html=1;entryX=0;entryY=0.5;entryDx=0;entryDy=0;endArrow=none;endFill=0;" parent="1" source="M1Bvxkw2taFCZ_IBdg_y-14" target="M1Bvxkw2taFCZ_IBdg_y-6" edge="1">
          <mxGeometry relative="1" as="geometry" />
        </mxCell>
        <mxCell id="M1Bvxkw2taFCZ_IBdg_y-282" style="rounded=0;orthogonalLoop=1;jettySize=auto;html=1;entryX=0;entryY=0.5;entryDx=0;entryDy=0;endArrow=none;endFill=0;" parent="1" source="M1Bvxkw2taFCZ_IBdg_y-14" target="M1Bvxkw2taFCZ_IBdg_y-7" edge="1">
          <mxGeometry relative="1" as="geometry" />
        </mxCell>
        <mxCell id="M1Bvxkw2taFCZ_IBdg_y-283" style="rounded=0;orthogonalLoop=1;jettySize=auto;html=1;entryX=0;entryY=0.5;entryDx=0;entryDy=0;endArrow=none;endFill=0;" parent="1" source="M1Bvxkw2taFCZ_IBdg_y-14" target="M1Bvxkw2taFCZ_IBdg_y-8" edge="1">
          <mxGeometry relative="1" as="geometry" />
        </mxCell>
        <mxCell id="M1Bvxkw2taFCZ_IBdg_y-284" style="rounded=0;orthogonalLoop=1;jettySize=auto;html=1;entryX=0;entryY=0.5;entryDx=0;entryDy=0;endArrow=none;endFill=0;" parent="1" source="M1Bvxkw2taFCZ_IBdg_y-14" target="M1Bvxkw2taFCZ_IBdg_y-9" edge="1">
          <mxGeometry relative="1" as="geometry" />
        </mxCell>
        <mxCell id="M1Bvxkw2taFCZ_IBdg_y-285" style="rounded=0;orthogonalLoop=1;jettySize=auto;html=1;entryX=0;entryY=0.5;entryDx=0;entryDy=0;endArrow=none;endFill=0;" parent="1" source="M1Bvxkw2taFCZ_IBdg_y-14" target="M1Bvxkw2taFCZ_IBdg_y-10" edge="1">
          <mxGeometry relative="1" as="geometry" />
        </mxCell>
        <mxCell id="M1Bvxkw2taFCZ_IBdg_y-286" style="rounded=0;orthogonalLoop=1;jettySize=auto;html=1;entryX=0;entryY=0.5;entryDx=0;entryDy=0;endArrow=none;endFill=0;" parent="1" source="M1Bvxkw2taFCZ_IBdg_y-14" target="M1Bvxkw2taFCZ_IBdg_y-11" edge="1">
          <mxGeometry relative="1" as="geometry" />
        </mxCell>
        <mxCell id="M1Bvxkw2taFCZ_IBdg_y-14" value="2" style="ellipse;whiteSpace=wrap;html=1;aspect=fixed;" parent="1" vertex="1">
          <mxGeometry x="526.5" y="380" width="20" height="20" as="geometry" />
        </mxCell>
        <mxCell id="M1Bvxkw2taFCZ_IBdg_y-287" style="rounded=0;orthogonalLoop=1;jettySize=auto;html=1;entryX=0;entryY=0.5;entryDx=0;entryDy=0;endArrow=none;endFill=0;" parent="1" source="M1Bvxkw2taFCZ_IBdg_y-15" target="M1Bvxkw2taFCZ_IBdg_y-1" edge="1">
          <mxGeometry relative="1" as="geometry" />
        </mxCell>
        <mxCell id="M1Bvxkw2taFCZ_IBdg_y-288" style="rounded=0;orthogonalLoop=1;jettySize=auto;html=1;entryX=0;entryY=0.5;entryDx=0;entryDy=0;endArrow=none;endFill=0;" parent="1" source="M1Bvxkw2taFCZ_IBdg_y-15" target="M1Bvxkw2taFCZ_IBdg_y-3" edge="1">
          <mxGeometry relative="1" as="geometry" />
        </mxCell>
        <mxCell id="M1Bvxkw2taFCZ_IBdg_y-289" style="rounded=0;orthogonalLoop=1;jettySize=auto;html=1;entryX=0;entryY=0.5;entryDx=0;entryDy=0;endArrow=none;endFill=0;" parent="1" source="M1Bvxkw2taFCZ_IBdg_y-15" target="M1Bvxkw2taFCZ_IBdg_y-4" edge="1">
          <mxGeometry relative="1" as="geometry" />
        </mxCell>
        <mxCell id="M1Bvxkw2taFCZ_IBdg_y-290" style="rounded=0;orthogonalLoop=1;jettySize=auto;html=1;entryX=0;entryY=0.5;entryDx=0;entryDy=0;endArrow=none;endFill=0;" parent="1" source="M1Bvxkw2taFCZ_IBdg_y-15" target="M1Bvxkw2taFCZ_IBdg_y-5" edge="1">
          <mxGeometry relative="1" as="geometry" />
        </mxCell>
        <mxCell id="M1Bvxkw2taFCZ_IBdg_y-291" style="rounded=0;orthogonalLoop=1;jettySize=auto;html=1;entryX=0;entryY=0.5;entryDx=0;entryDy=0;endArrow=none;endFill=0;" parent="1" source="M1Bvxkw2taFCZ_IBdg_y-15" target="M1Bvxkw2taFCZ_IBdg_y-6" edge="1">
          <mxGeometry relative="1" as="geometry" />
        </mxCell>
        <mxCell id="M1Bvxkw2taFCZ_IBdg_y-292" style="rounded=0;orthogonalLoop=1;jettySize=auto;html=1;entryX=0;entryY=0.5;entryDx=0;entryDy=0;endArrow=none;endFill=0;" parent="1" source="M1Bvxkw2taFCZ_IBdg_y-15" target="M1Bvxkw2taFCZ_IBdg_y-7" edge="1">
          <mxGeometry relative="1" as="geometry" />
        </mxCell>
        <mxCell id="M1Bvxkw2taFCZ_IBdg_y-293" style="rounded=0;orthogonalLoop=1;jettySize=auto;html=1;entryX=0;entryY=0.5;entryDx=0;entryDy=0;endArrow=none;endFill=0;" parent="1" source="M1Bvxkw2taFCZ_IBdg_y-15" target="M1Bvxkw2taFCZ_IBdg_y-8" edge="1">
          <mxGeometry relative="1" as="geometry" />
        </mxCell>
        <mxCell id="M1Bvxkw2taFCZ_IBdg_y-294" style="rounded=0;orthogonalLoop=1;jettySize=auto;html=1;entryX=0;entryY=0.5;entryDx=0;entryDy=0;endArrow=none;endFill=0;" parent="1" source="M1Bvxkw2taFCZ_IBdg_y-15" target="M1Bvxkw2taFCZ_IBdg_y-9" edge="1">
          <mxGeometry relative="1" as="geometry" />
        </mxCell>
        <mxCell id="M1Bvxkw2taFCZ_IBdg_y-295" style="rounded=0;orthogonalLoop=1;jettySize=auto;html=1;entryX=0;entryY=0.5;entryDx=0;entryDy=0;endArrow=none;endFill=0;" parent="1" source="M1Bvxkw2taFCZ_IBdg_y-15" target="M1Bvxkw2taFCZ_IBdg_y-10" edge="1">
          <mxGeometry relative="1" as="geometry" />
        </mxCell>
        <mxCell id="M1Bvxkw2taFCZ_IBdg_y-296" style="rounded=0;orthogonalLoop=1;jettySize=auto;html=1;entryX=0;entryY=0.5;entryDx=0;entryDy=0;endArrow=none;endFill=0;" parent="1" source="M1Bvxkw2taFCZ_IBdg_y-15" target="M1Bvxkw2taFCZ_IBdg_y-11" edge="1">
          <mxGeometry relative="1" as="geometry" />
        </mxCell>
        <mxCell id="M1Bvxkw2taFCZ_IBdg_y-15" value="3" style="ellipse;whiteSpace=wrap;html=1;aspect=fixed;" parent="1" vertex="1">
          <mxGeometry x="526.5" y="420" width="20" height="20" as="geometry" />
        </mxCell>
        <mxCell id="M1Bvxkw2taFCZ_IBdg_y-297" style="rounded=0;orthogonalLoop=1;jettySize=auto;html=1;entryX=0;entryY=0.5;entryDx=0;entryDy=0;endArrow=none;endFill=0;" parent="1" source="M1Bvxkw2taFCZ_IBdg_y-16" target="M1Bvxkw2taFCZ_IBdg_y-1" edge="1">
          <mxGeometry relative="1" as="geometry" />
        </mxCell>
        <mxCell id="M1Bvxkw2taFCZ_IBdg_y-298" style="rounded=0;orthogonalLoop=1;jettySize=auto;html=1;entryX=0;entryY=0.5;entryDx=0;entryDy=0;endArrow=none;endFill=0;" parent="1" source="M1Bvxkw2taFCZ_IBdg_y-16" target="M1Bvxkw2taFCZ_IBdg_y-3" edge="1">
          <mxGeometry relative="1" as="geometry" />
        </mxCell>
        <mxCell id="M1Bvxkw2taFCZ_IBdg_y-299" style="rounded=0;orthogonalLoop=1;jettySize=auto;html=1;entryX=0;entryY=0.5;entryDx=0;entryDy=0;endArrow=none;endFill=0;" parent="1" source="M1Bvxkw2taFCZ_IBdg_y-16" target="M1Bvxkw2taFCZ_IBdg_y-4" edge="1">
          <mxGeometry relative="1" as="geometry" />
        </mxCell>
        <mxCell id="M1Bvxkw2taFCZ_IBdg_y-300" style="rounded=0;orthogonalLoop=1;jettySize=auto;html=1;entryX=0;entryY=0.5;entryDx=0;entryDy=0;endArrow=none;endFill=0;" parent="1" source="M1Bvxkw2taFCZ_IBdg_y-16" target="M1Bvxkw2taFCZ_IBdg_y-5" edge="1">
          <mxGeometry relative="1" as="geometry" />
        </mxCell>
        <mxCell id="M1Bvxkw2taFCZ_IBdg_y-301" style="rounded=0;orthogonalLoop=1;jettySize=auto;html=1;entryX=0;entryY=0.5;entryDx=0;entryDy=0;endArrow=none;endFill=0;" parent="1" source="M1Bvxkw2taFCZ_IBdg_y-16" target="M1Bvxkw2taFCZ_IBdg_y-6" edge="1">
          <mxGeometry relative="1" as="geometry" />
        </mxCell>
        <mxCell id="M1Bvxkw2taFCZ_IBdg_y-302" style="rounded=0;orthogonalLoop=1;jettySize=auto;html=1;entryX=0;entryY=0.5;entryDx=0;entryDy=0;endArrow=none;endFill=0;" parent="1" source="M1Bvxkw2taFCZ_IBdg_y-16" target="M1Bvxkw2taFCZ_IBdg_y-7" edge="1">
          <mxGeometry relative="1" as="geometry" />
        </mxCell>
        <mxCell id="M1Bvxkw2taFCZ_IBdg_y-303" style="rounded=0;orthogonalLoop=1;jettySize=auto;html=1;entryX=0;entryY=0.5;entryDx=0;entryDy=0;endArrow=none;endFill=0;" parent="1" source="M1Bvxkw2taFCZ_IBdg_y-16" target="M1Bvxkw2taFCZ_IBdg_y-8" edge="1">
          <mxGeometry relative="1" as="geometry" />
        </mxCell>
        <mxCell id="M1Bvxkw2taFCZ_IBdg_y-304" style="rounded=0;orthogonalLoop=1;jettySize=auto;html=1;entryX=0;entryY=0.5;entryDx=0;entryDy=0;endArrow=none;endFill=0;" parent="1" source="M1Bvxkw2taFCZ_IBdg_y-16" target="M1Bvxkw2taFCZ_IBdg_y-9" edge="1">
          <mxGeometry relative="1" as="geometry" />
        </mxCell>
        <mxCell id="M1Bvxkw2taFCZ_IBdg_y-305" style="rounded=0;orthogonalLoop=1;jettySize=auto;html=1;entryX=0;entryY=0.5;entryDx=0;entryDy=0;endArrow=none;endFill=0;" parent="1" source="M1Bvxkw2taFCZ_IBdg_y-16" target="M1Bvxkw2taFCZ_IBdg_y-10" edge="1">
          <mxGeometry relative="1" as="geometry" />
        </mxCell>
        <mxCell id="M1Bvxkw2taFCZ_IBdg_y-306" style="rounded=0;orthogonalLoop=1;jettySize=auto;html=1;entryX=0;entryY=0.5;entryDx=0;entryDy=0;endArrow=none;endFill=0;" parent="1" source="M1Bvxkw2taFCZ_IBdg_y-16" target="M1Bvxkw2taFCZ_IBdg_y-11" edge="1">
          <mxGeometry relative="1" as="geometry" />
        </mxCell>
        <mxCell id="M1Bvxkw2taFCZ_IBdg_y-16" value="4" style="ellipse;whiteSpace=wrap;html=1;aspect=fixed;" parent="1" vertex="1">
          <mxGeometry x="526.5" y="460" width="20" height="20" as="geometry" />
        </mxCell>
        <mxCell id="M1Bvxkw2taFCZ_IBdg_y-307" style="rounded=0;orthogonalLoop=1;jettySize=auto;html=1;entryX=0;entryY=0.5;entryDx=0;entryDy=0;endArrow=none;endFill=0;" parent="1" source="M1Bvxkw2taFCZ_IBdg_y-17" target="M1Bvxkw2taFCZ_IBdg_y-1" edge="1">
          <mxGeometry relative="1" as="geometry" />
        </mxCell>
        <mxCell id="M1Bvxkw2taFCZ_IBdg_y-308" style="rounded=0;orthogonalLoop=1;jettySize=auto;html=1;entryX=0;entryY=0.5;entryDx=0;entryDy=0;endArrow=none;endFill=0;" parent="1" source="M1Bvxkw2taFCZ_IBdg_y-17" target="M1Bvxkw2taFCZ_IBdg_y-3" edge="1">
          <mxGeometry relative="1" as="geometry" />
        </mxCell>
        <mxCell id="M1Bvxkw2taFCZ_IBdg_y-309" style="rounded=0;orthogonalLoop=1;jettySize=auto;html=1;entryX=0;entryY=0.5;entryDx=0;entryDy=0;endArrow=none;endFill=0;" parent="1" source="M1Bvxkw2taFCZ_IBdg_y-17" target="M1Bvxkw2taFCZ_IBdg_y-4" edge="1">
          <mxGeometry relative="1" as="geometry" />
        </mxCell>
        <mxCell id="M1Bvxkw2taFCZ_IBdg_y-310" style="rounded=0;orthogonalLoop=1;jettySize=auto;html=1;entryX=0;entryY=0.5;entryDx=0;entryDy=0;endArrow=none;endFill=0;" parent="1" source="M1Bvxkw2taFCZ_IBdg_y-17" target="M1Bvxkw2taFCZ_IBdg_y-5" edge="1">
          <mxGeometry relative="1" as="geometry" />
        </mxCell>
        <mxCell id="M1Bvxkw2taFCZ_IBdg_y-311" style="rounded=0;orthogonalLoop=1;jettySize=auto;html=1;entryX=0;entryY=0.5;entryDx=0;entryDy=0;endArrow=none;endFill=0;" parent="1" source="M1Bvxkw2taFCZ_IBdg_y-17" target="M1Bvxkw2taFCZ_IBdg_y-6" edge="1">
          <mxGeometry relative="1" as="geometry" />
        </mxCell>
        <mxCell id="M1Bvxkw2taFCZ_IBdg_y-312" style="rounded=0;orthogonalLoop=1;jettySize=auto;html=1;entryX=0;entryY=0.5;entryDx=0;entryDy=0;endArrow=none;endFill=0;" parent="1" source="M1Bvxkw2taFCZ_IBdg_y-17" target="M1Bvxkw2taFCZ_IBdg_y-7" edge="1">
          <mxGeometry relative="1" as="geometry" />
        </mxCell>
        <mxCell id="M1Bvxkw2taFCZ_IBdg_y-313" style="rounded=0;orthogonalLoop=1;jettySize=auto;html=1;entryX=0;entryY=0.5;entryDx=0;entryDy=0;endArrow=none;endFill=0;" parent="1" source="M1Bvxkw2taFCZ_IBdg_y-17" target="M1Bvxkw2taFCZ_IBdg_y-8" edge="1">
          <mxGeometry relative="1" as="geometry" />
        </mxCell>
        <mxCell id="M1Bvxkw2taFCZ_IBdg_y-314" style="rounded=0;orthogonalLoop=1;jettySize=auto;html=1;entryX=0;entryY=0.5;entryDx=0;entryDy=0;endArrow=none;endFill=0;" parent="1" source="M1Bvxkw2taFCZ_IBdg_y-17" target="M1Bvxkw2taFCZ_IBdg_y-9" edge="1">
          <mxGeometry relative="1" as="geometry" />
        </mxCell>
        <mxCell id="M1Bvxkw2taFCZ_IBdg_y-315" style="rounded=0;orthogonalLoop=1;jettySize=auto;html=1;entryX=0;entryY=0.5;entryDx=0;entryDy=0;endArrow=none;endFill=0;" parent="1" source="M1Bvxkw2taFCZ_IBdg_y-17" target="M1Bvxkw2taFCZ_IBdg_y-10" edge="1">
          <mxGeometry relative="1" as="geometry" />
        </mxCell>
        <mxCell id="M1Bvxkw2taFCZ_IBdg_y-316" style="rounded=0;orthogonalLoop=1;jettySize=auto;html=1;entryX=0;entryY=0.5;entryDx=0;entryDy=0;endArrow=none;endFill=0;" parent="1" source="M1Bvxkw2taFCZ_IBdg_y-17" target="M1Bvxkw2taFCZ_IBdg_y-11" edge="1">
          <mxGeometry relative="1" as="geometry" />
        </mxCell>
        <mxCell id="M1Bvxkw2taFCZ_IBdg_y-17" value="5" style="ellipse;whiteSpace=wrap;html=1;aspect=fixed;" parent="1" vertex="1">
          <mxGeometry x="526.5" y="500" width="20" height="20" as="geometry" />
        </mxCell>
        <mxCell id="M1Bvxkw2taFCZ_IBdg_y-24" value="..." style="text;html=1;strokeColor=none;fillColor=none;align=center;verticalAlign=middle;whiteSpace=wrap;rounded=0;rotation=90;fontSize=25;" parent="1" vertex="1">
          <mxGeometry x="515" y="525" width="60" height="55" as="geometry" />
        </mxCell>
        <mxCell id="M1Bvxkw2taFCZ_IBdg_y-25" value="63" style="ellipse;whiteSpace=wrap;html=1;aspect=fixed;" parent="1" vertex="1">
          <mxGeometry x="524" y="590" width="25" height="25" as="geometry" />
        </mxCell>
        <mxCell id="M1Bvxkw2taFCZ_IBdg_y-221" style="rounded=0;orthogonalLoop=1;jettySize=auto;html=1;entryX=0;entryY=0.5;entryDx=0;entryDy=0;endArrow=none;endFill=0;" parent="1" source="M1Bvxkw2taFCZ_IBdg_y-26" target="M1Bvxkw2taFCZ_IBdg_y-12" edge="1">
          <mxGeometry relative="1" as="geometry" />
        </mxCell>
        <mxCell id="M1Bvxkw2taFCZ_IBdg_y-222" style="rounded=0;orthogonalLoop=1;jettySize=auto;html=1;entryX=0;entryY=0.5;entryDx=0;entryDy=0;endArrow=none;endFill=0;" parent="1" source="M1Bvxkw2taFCZ_IBdg_y-26" target="M1Bvxkw2taFCZ_IBdg_y-13" edge="1">
          <mxGeometry relative="1" as="geometry" />
        </mxCell>
        <mxCell id="M1Bvxkw2taFCZ_IBdg_y-223" style="rounded=0;orthogonalLoop=1;jettySize=auto;html=1;entryX=0;entryY=0.5;entryDx=0;entryDy=0;endArrow=none;endFill=0;" parent="1" source="M1Bvxkw2taFCZ_IBdg_y-26" target="M1Bvxkw2taFCZ_IBdg_y-14" edge="1">
          <mxGeometry relative="1" as="geometry" />
        </mxCell>
        <mxCell id="M1Bvxkw2taFCZ_IBdg_y-224" style="rounded=0;orthogonalLoop=1;jettySize=auto;html=1;entryX=0;entryY=0.5;entryDx=0;entryDy=0;endArrow=none;endFill=0;" parent="1" source="M1Bvxkw2taFCZ_IBdg_y-26" target="M1Bvxkw2taFCZ_IBdg_y-15" edge="1">
          <mxGeometry relative="1" as="geometry" />
        </mxCell>
        <mxCell id="M1Bvxkw2taFCZ_IBdg_y-225" style="rounded=0;orthogonalLoop=1;jettySize=auto;html=1;entryX=0;entryY=0.5;entryDx=0;entryDy=0;endArrow=none;endFill=0;" parent="1" source="M1Bvxkw2taFCZ_IBdg_y-26" target="M1Bvxkw2taFCZ_IBdg_y-16" edge="1">
          <mxGeometry relative="1" as="geometry" />
        </mxCell>
        <mxCell id="M1Bvxkw2taFCZ_IBdg_y-226" style="rounded=0;orthogonalLoop=1;jettySize=auto;html=1;entryX=0;entryY=0.5;entryDx=0;entryDy=0;endArrow=none;endFill=0;" parent="1" source="M1Bvxkw2taFCZ_IBdg_y-26" target="M1Bvxkw2taFCZ_IBdg_y-17" edge="1">
          <mxGeometry relative="1" as="geometry" />
        </mxCell>
        <mxCell id="M1Bvxkw2taFCZ_IBdg_y-26" value="0" style="ellipse;whiteSpace=wrap;html=1;aspect=fixed;" parent="1" vertex="1">
          <mxGeometry x="444" y="260" width="20" height="20" as="geometry" />
        </mxCell>
        <mxCell id="M1Bvxkw2taFCZ_IBdg_y-227" style="rounded=0;orthogonalLoop=1;jettySize=auto;html=1;entryX=0;entryY=0.5;entryDx=0;entryDy=0;endArrow=none;endFill=0;" parent="1" source="M1Bvxkw2taFCZ_IBdg_y-27" target="M1Bvxkw2taFCZ_IBdg_y-12" edge="1">
          <mxGeometry relative="1" as="geometry" />
        </mxCell>
        <mxCell id="M1Bvxkw2taFCZ_IBdg_y-228" style="rounded=0;orthogonalLoop=1;jettySize=auto;html=1;entryX=0;entryY=0.5;entryDx=0;entryDy=0;endArrow=none;endFill=0;" parent="1" source="M1Bvxkw2taFCZ_IBdg_y-27" target="M1Bvxkw2taFCZ_IBdg_y-13" edge="1">
          <mxGeometry relative="1" as="geometry" />
        </mxCell>
        <mxCell id="M1Bvxkw2taFCZ_IBdg_y-229" style="rounded=0;orthogonalLoop=1;jettySize=auto;html=1;entryX=0;entryY=0.5;entryDx=0;entryDy=0;endArrow=none;endFill=0;" parent="1" source="M1Bvxkw2taFCZ_IBdg_y-27" target="M1Bvxkw2taFCZ_IBdg_y-14" edge="1">
          <mxGeometry relative="1" as="geometry" />
        </mxCell>
        <mxCell id="M1Bvxkw2taFCZ_IBdg_y-230" style="rounded=0;orthogonalLoop=1;jettySize=auto;html=1;entryX=0;entryY=0.5;entryDx=0;entryDy=0;endArrow=none;endFill=0;" parent="1" source="M1Bvxkw2taFCZ_IBdg_y-27" target="M1Bvxkw2taFCZ_IBdg_y-15" edge="1">
          <mxGeometry relative="1" as="geometry" />
        </mxCell>
        <mxCell id="M1Bvxkw2taFCZ_IBdg_y-231" style="rounded=0;orthogonalLoop=1;jettySize=auto;html=1;entryX=0;entryY=0.5;entryDx=0;entryDy=0;endArrow=none;endFill=0;" parent="1" source="M1Bvxkw2taFCZ_IBdg_y-27" target="M1Bvxkw2taFCZ_IBdg_y-16" edge="1">
          <mxGeometry relative="1" as="geometry" />
        </mxCell>
        <mxCell id="M1Bvxkw2taFCZ_IBdg_y-232" style="rounded=0;orthogonalLoop=1;jettySize=auto;html=1;entryX=0;entryY=0.5;entryDx=0;entryDy=0;endArrow=none;endFill=0;" parent="1" source="M1Bvxkw2taFCZ_IBdg_y-27" target="M1Bvxkw2taFCZ_IBdg_y-17" edge="1">
          <mxGeometry relative="1" as="geometry" />
        </mxCell>
        <mxCell id="M1Bvxkw2taFCZ_IBdg_y-27" value="1" style="ellipse;whiteSpace=wrap;html=1;aspect=fixed;" parent="1" vertex="1">
          <mxGeometry x="444" y="300" width="20" height="20" as="geometry" />
        </mxCell>
        <mxCell id="M1Bvxkw2taFCZ_IBdg_y-233" style="rounded=0;orthogonalLoop=1;jettySize=auto;html=1;entryX=0;entryY=0.5;entryDx=0;entryDy=0;endArrow=none;endFill=0;" parent="1" source="M1Bvxkw2taFCZ_IBdg_y-28" target="M1Bvxkw2taFCZ_IBdg_y-12" edge="1">
          <mxGeometry relative="1" as="geometry" />
        </mxCell>
        <mxCell id="M1Bvxkw2taFCZ_IBdg_y-234" style="rounded=0;orthogonalLoop=1;jettySize=auto;html=1;entryX=0;entryY=0.5;entryDx=0;entryDy=0;endArrow=none;endFill=0;" parent="1" source="M1Bvxkw2taFCZ_IBdg_y-28" target="M1Bvxkw2taFCZ_IBdg_y-13" edge="1">
          <mxGeometry relative="1" as="geometry" />
        </mxCell>
        <mxCell id="M1Bvxkw2taFCZ_IBdg_y-235" style="rounded=0;orthogonalLoop=1;jettySize=auto;html=1;entryX=0;entryY=0.5;entryDx=0;entryDy=0;endArrow=none;endFill=0;" parent="1" source="M1Bvxkw2taFCZ_IBdg_y-28" target="M1Bvxkw2taFCZ_IBdg_y-14" edge="1">
          <mxGeometry relative="1" as="geometry" />
        </mxCell>
        <mxCell id="M1Bvxkw2taFCZ_IBdg_y-236" style="rounded=0;orthogonalLoop=1;jettySize=auto;html=1;entryX=0;entryY=0.5;entryDx=0;entryDy=0;endArrow=none;endFill=0;" parent="1" source="M1Bvxkw2taFCZ_IBdg_y-28" target="M1Bvxkw2taFCZ_IBdg_y-15" edge="1">
          <mxGeometry relative="1" as="geometry" />
        </mxCell>
        <mxCell id="M1Bvxkw2taFCZ_IBdg_y-237" style="rounded=0;orthogonalLoop=1;jettySize=auto;html=1;entryX=0;entryY=0.5;entryDx=0;entryDy=0;endArrow=none;endFill=0;" parent="1" source="M1Bvxkw2taFCZ_IBdg_y-28" target="M1Bvxkw2taFCZ_IBdg_y-16" edge="1">
          <mxGeometry relative="1" as="geometry" />
        </mxCell>
        <mxCell id="M1Bvxkw2taFCZ_IBdg_y-238" style="rounded=0;orthogonalLoop=1;jettySize=auto;html=1;entryX=0;entryY=0.5;entryDx=0;entryDy=0;endArrow=none;endFill=0;" parent="1" source="M1Bvxkw2taFCZ_IBdg_y-28" target="M1Bvxkw2taFCZ_IBdg_y-17" edge="1">
          <mxGeometry relative="1" as="geometry" />
        </mxCell>
        <mxCell id="M1Bvxkw2taFCZ_IBdg_y-28" value="2" style="ellipse;whiteSpace=wrap;html=1;aspect=fixed;" parent="1" vertex="1">
          <mxGeometry x="444" y="340" width="20" height="20" as="geometry" />
        </mxCell>
        <mxCell id="M1Bvxkw2taFCZ_IBdg_y-239" style="rounded=0;orthogonalLoop=1;jettySize=auto;html=1;entryX=0;entryY=0.5;entryDx=0;entryDy=0;endArrow=none;endFill=0;" parent="1" source="M1Bvxkw2taFCZ_IBdg_y-29" target="M1Bvxkw2taFCZ_IBdg_y-12" edge="1">
          <mxGeometry relative="1" as="geometry" />
        </mxCell>
        <mxCell id="M1Bvxkw2taFCZ_IBdg_y-240" style="rounded=0;orthogonalLoop=1;jettySize=auto;html=1;entryX=0;entryY=0.5;entryDx=0;entryDy=0;endArrow=none;endFill=0;" parent="1" source="M1Bvxkw2taFCZ_IBdg_y-29" target="M1Bvxkw2taFCZ_IBdg_y-13" edge="1">
          <mxGeometry relative="1" as="geometry" />
        </mxCell>
        <mxCell id="M1Bvxkw2taFCZ_IBdg_y-241" style="rounded=0;orthogonalLoop=1;jettySize=auto;html=1;entryX=0;entryY=0.5;entryDx=0;entryDy=0;endArrow=none;endFill=0;" parent="1" source="M1Bvxkw2taFCZ_IBdg_y-29" target="M1Bvxkw2taFCZ_IBdg_y-14" edge="1">
          <mxGeometry relative="1" as="geometry" />
        </mxCell>
        <mxCell id="M1Bvxkw2taFCZ_IBdg_y-242" style="rounded=0;orthogonalLoop=1;jettySize=auto;html=1;entryX=0;entryY=0.5;entryDx=0;entryDy=0;endArrow=none;endFill=0;" parent="1" source="M1Bvxkw2taFCZ_IBdg_y-29" target="M1Bvxkw2taFCZ_IBdg_y-15" edge="1">
          <mxGeometry relative="1" as="geometry" />
        </mxCell>
        <mxCell id="M1Bvxkw2taFCZ_IBdg_y-243" style="rounded=0;orthogonalLoop=1;jettySize=auto;html=1;entryX=0;entryY=0.5;entryDx=0;entryDy=0;endArrow=none;endFill=0;" parent="1" source="M1Bvxkw2taFCZ_IBdg_y-29" target="M1Bvxkw2taFCZ_IBdg_y-16" edge="1">
          <mxGeometry relative="1" as="geometry" />
        </mxCell>
        <mxCell id="M1Bvxkw2taFCZ_IBdg_y-244" style="rounded=0;orthogonalLoop=1;jettySize=auto;html=1;entryX=0;entryY=0.5;entryDx=0;entryDy=0;endArrow=none;endFill=0;" parent="1" source="M1Bvxkw2taFCZ_IBdg_y-29" target="M1Bvxkw2taFCZ_IBdg_y-17" edge="1">
          <mxGeometry relative="1" as="geometry" />
        </mxCell>
        <mxCell id="M1Bvxkw2taFCZ_IBdg_y-29" value="3" style="ellipse;whiteSpace=wrap;html=1;aspect=fixed;" parent="1" vertex="1">
          <mxGeometry x="444" y="380" width="20" height="20" as="geometry" />
        </mxCell>
        <mxCell id="M1Bvxkw2taFCZ_IBdg_y-245" style="rounded=0;orthogonalLoop=1;jettySize=auto;html=1;entryX=0;entryY=0.5;entryDx=0;entryDy=0;endArrow=none;endFill=0;" parent="1" source="M1Bvxkw2taFCZ_IBdg_y-30" target="M1Bvxkw2taFCZ_IBdg_y-12" edge="1">
          <mxGeometry relative="1" as="geometry" />
        </mxCell>
        <mxCell id="M1Bvxkw2taFCZ_IBdg_y-246" style="rounded=0;orthogonalLoop=1;jettySize=auto;html=1;entryX=0;entryY=0.5;entryDx=0;entryDy=0;endArrow=none;endFill=0;" parent="1" source="M1Bvxkw2taFCZ_IBdg_y-30" target="M1Bvxkw2taFCZ_IBdg_y-13" edge="1">
          <mxGeometry relative="1" as="geometry" />
        </mxCell>
        <mxCell id="M1Bvxkw2taFCZ_IBdg_y-247" style="rounded=0;orthogonalLoop=1;jettySize=auto;html=1;entryX=0;entryY=0.5;entryDx=0;entryDy=0;endArrow=none;endFill=0;" parent="1" source="M1Bvxkw2taFCZ_IBdg_y-30" target="M1Bvxkw2taFCZ_IBdg_y-14" edge="1">
          <mxGeometry relative="1" as="geometry" />
        </mxCell>
        <mxCell id="M1Bvxkw2taFCZ_IBdg_y-248" style="rounded=0;orthogonalLoop=1;jettySize=auto;html=1;entryX=0;entryY=0.5;entryDx=0;entryDy=0;endArrow=none;endFill=0;" parent="1" source="M1Bvxkw2taFCZ_IBdg_y-30" target="M1Bvxkw2taFCZ_IBdg_y-15" edge="1">
          <mxGeometry relative="1" as="geometry" />
        </mxCell>
        <mxCell id="M1Bvxkw2taFCZ_IBdg_y-249" style="rounded=0;orthogonalLoop=1;jettySize=auto;html=1;entryX=0;entryY=0.5;entryDx=0;entryDy=0;endArrow=none;endFill=0;" parent="1" source="M1Bvxkw2taFCZ_IBdg_y-30" target="M1Bvxkw2taFCZ_IBdg_y-16" edge="1">
          <mxGeometry relative="1" as="geometry" />
        </mxCell>
        <mxCell id="M1Bvxkw2taFCZ_IBdg_y-250" style="rounded=0;orthogonalLoop=1;jettySize=auto;html=1;entryX=0;entryY=0.5;entryDx=0;entryDy=0;endArrow=none;endFill=0;" parent="1" source="M1Bvxkw2taFCZ_IBdg_y-30" target="M1Bvxkw2taFCZ_IBdg_y-17" edge="1">
          <mxGeometry relative="1" as="geometry" />
        </mxCell>
        <mxCell id="M1Bvxkw2taFCZ_IBdg_y-30" value="4" style="ellipse;whiteSpace=wrap;html=1;aspect=fixed;" parent="1" vertex="1">
          <mxGeometry x="444" y="420" width="20" height="20" as="geometry" />
        </mxCell>
        <mxCell id="M1Bvxkw2taFCZ_IBdg_y-251" style="rounded=0;orthogonalLoop=1;jettySize=auto;html=1;entryX=0;entryY=0.5;entryDx=0;entryDy=0;endArrow=none;endFill=0;" parent="1" source="M1Bvxkw2taFCZ_IBdg_y-31" target="M1Bvxkw2taFCZ_IBdg_y-12" edge="1">
          <mxGeometry relative="1" as="geometry" />
        </mxCell>
        <mxCell id="M1Bvxkw2taFCZ_IBdg_y-252" style="rounded=0;orthogonalLoop=1;jettySize=auto;html=1;entryX=0;entryY=0.5;entryDx=0;entryDy=0;endArrow=none;endFill=0;" parent="1" source="M1Bvxkw2taFCZ_IBdg_y-31" target="M1Bvxkw2taFCZ_IBdg_y-13" edge="1">
          <mxGeometry relative="1" as="geometry" />
        </mxCell>
        <mxCell id="M1Bvxkw2taFCZ_IBdg_y-253" style="rounded=0;orthogonalLoop=1;jettySize=auto;html=1;entryX=0;entryY=0.5;entryDx=0;entryDy=0;endArrow=none;endFill=0;" parent="1" source="M1Bvxkw2taFCZ_IBdg_y-31" target="M1Bvxkw2taFCZ_IBdg_y-14" edge="1">
          <mxGeometry relative="1" as="geometry" />
        </mxCell>
        <mxCell id="M1Bvxkw2taFCZ_IBdg_y-254" style="rounded=0;orthogonalLoop=1;jettySize=auto;html=1;entryX=0;entryY=0.5;entryDx=0;entryDy=0;endArrow=none;endFill=0;" parent="1" source="M1Bvxkw2taFCZ_IBdg_y-31" target="M1Bvxkw2taFCZ_IBdg_y-15" edge="1">
          <mxGeometry relative="1" as="geometry" />
        </mxCell>
        <mxCell id="M1Bvxkw2taFCZ_IBdg_y-255" style="rounded=0;orthogonalLoop=1;jettySize=auto;html=1;entryX=0;entryY=0.5;entryDx=0;entryDy=0;endArrow=none;endFill=0;" parent="1" source="M1Bvxkw2taFCZ_IBdg_y-31" target="M1Bvxkw2taFCZ_IBdg_y-16" edge="1">
          <mxGeometry relative="1" as="geometry" />
        </mxCell>
        <mxCell id="M1Bvxkw2taFCZ_IBdg_y-256" style="rounded=0;orthogonalLoop=1;jettySize=auto;html=1;entryX=0;entryY=0.5;entryDx=0;entryDy=0;endArrow=none;endFill=0;" parent="1" source="M1Bvxkw2taFCZ_IBdg_y-31" target="M1Bvxkw2taFCZ_IBdg_y-17" edge="1">
          <mxGeometry relative="1" as="geometry" />
        </mxCell>
        <mxCell id="M1Bvxkw2taFCZ_IBdg_y-31" value="5" style="ellipse;whiteSpace=wrap;html=1;aspect=fixed;" parent="1" vertex="1">
          <mxGeometry x="444" y="460" width="20" height="20" as="geometry" />
        </mxCell>
        <mxCell id="M1Bvxkw2taFCZ_IBdg_y-36" value="127" style="ellipse;whiteSpace=wrap;html=1;aspect=fixed;" parent="1" vertex="1">
          <mxGeometry x="441.5" y="540" width="25" height="25" as="geometry" />
        </mxCell>
        <mxCell id="M1Bvxkw2taFCZ_IBdg_y-40" value="..." style="text;html=1;strokeColor=none;fillColor=none;align=center;verticalAlign=middle;whiteSpace=wrap;rounded=0;rotation=90;fontSize=25;" parent="1" vertex="1">
          <mxGeometry x="431.25" y="482.5" width="60" height="55" as="geometry" />
        </mxCell>
        <mxCell id="M1Bvxkw2taFCZ_IBdg_y-146" style="rounded=0;orthogonalLoop=1;jettySize=auto;html=1;entryX=0;entryY=0.5;entryDx=0;entryDy=0;endArrow=none;endFill=0;" parent="1" source="M1Bvxkw2taFCZ_IBdg_y-44" target="M1Bvxkw2taFCZ_IBdg_y-26" edge="1">
          <mxGeometry relative="1" as="geometry" />
        </mxCell>
        <mxCell id="M1Bvxkw2taFCZ_IBdg_y-147" style="rounded=0;orthogonalLoop=1;jettySize=auto;html=1;entryX=0;entryY=0.5;entryDx=0;entryDy=0;endArrow=none;endFill=0;" parent="1" source="M1Bvxkw2taFCZ_IBdg_y-44" target="M1Bvxkw2taFCZ_IBdg_y-27" edge="1">
          <mxGeometry relative="1" as="geometry" />
        </mxCell>
        <mxCell id="M1Bvxkw2taFCZ_IBdg_y-148" style="rounded=0;orthogonalLoop=1;jettySize=auto;html=1;entryX=0;entryY=0.5;entryDx=0;entryDy=0;endArrow=none;endFill=0;" parent="1" source="M1Bvxkw2taFCZ_IBdg_y-44" target="M1Bvxkw2taFCZ_IBdg_y-28" edge="1">
          <mxGeometry relative="1" as="geometry" />
        </mxCell>
        <mxCell id="M1Bvxkw2taFCZ_IBdg_y-149" style="rounded=0;orthogonalLoop=1;jettySize=auto;html=1;entryX=0;entryY=0.5;entryDx=0;entryDy=0;endArrow=none;endFill=0;" parent="1" source="M1Bvxkw2taFCZ_IBdg_y-44" target="M1Bvxkw2taFCZ_IBdg_y-29" edge="1">
          <mxGeometry relative="1" as="geometry" />
        </mxCell>
        <mxCell id="M1Bvxkw2taFCZ_IBdg_y-150" style="rounded=0;orthogonalLoop=1;jettySize=auto;html=1;entryX=0;entryY=0.5;entryDx=0;entryDy=0;endArrow=none;endFill=0;" parent="1" source="M1Bvxkw2taFCZ_IBdg_y-44" target="M1Bvxkw2taFCZ_IBdg_y-30" edge="1">
          <mxGeometry relative="1" as="geometry" />
        </mxCell>
        <mxCell id="M1Bvxkw2taFCZ_IBdg_y-151" style="rounded=0;orthogonalLoop=1;jettySize=auto;html=1;entryX=0;entryY=0.5;entryDx=0;entryDy=0;endArrow=none;endFill=0;" parent="1" source="M1Bvxkw2taFCZ_IBdg_y-44" target="M1Bvxkw2taFCZ_IBdg_y-31" edge="1">
          <mxGeometry relative="1" as="geometry" />
        </mxCell>
        <mxCell id="M1Bvxkw2taFCZ_IBdg_y-44" value="0" style="ellipse;whiteSpace=wrap;html=1;aspect=fixed;" parent="1" vertex="1">
          <mxGeometry x="362.5" y="220" width="20" height="20" as="geometry" />
        </mxCell>
        <mxCell id="M1Bvxkw2taFCZ_IBdg_y-152" style="rounded=0;orthogonalLoop=1;jettySize=auto;html=1;entryX=0;entryY=0.5;entryDx=0;entryDy=0;endArrow=none;endFill=0;" parent="1" source="M1Bvxkw2taFCZ_IBdg_y-45" target="M1Bvxkw2taFCZ_IBdg_y-26" edge="1">
          <mxGeometry relative="1" as="geometry" />
        </mxCell>
        <mxCell id="M1Bvxkw2taFCZ_IBdg_y-153" style="rounded=0;orthogonalLoop=1;jettySize=auto;html=1;entryX=0;entryY=0.5;entryDx=0;entryDy=0;endArrow=none;endFill=0;" parent="1" source="M1Bvxkw2taFCZ_IBdg_y-45" target="M1Bvxkw2taFCZ_IBdg_y-27" edge="1">
          <mxGeometry relative="1" as="geometry" />
        </mxCell>
        <mxCell id="M1Bvxkw2taFCZ_IBdg_y-156" style="rounded=0;orthogonalLoop=1;jettySize=auto;html=1;entryX=0;entryY=0.5;entryDx=0;entryDy=0;endArrow=none;endFill=0;" parent="1" source="M1Bvxkw2taFCZ_IBdg_y-45" target="M1Bvxkw2taFCZ_IBdg_y-28" edge="1">
          <mxGeometry relative="1" as="geometry" />
        </mxCell>
        <mxCell id="M1Bvxkw2taFCZ_IBdg_y-157" style="rounded=0;orthogonalLoop=1;jettySize=auto;html=1;entryX=0;entryY=0.5;entryDx=0;entryDy=0;endArrow=none;endFill=0;" parent="1" source="M1Bvxkw2taFCZ_IBdg_y-45" target="M1Bvxkw2taFCZ_IBdg_y-29" edge="1">
          <mxGeometry relative="1" as="geometry" />
        </mxCell>
        <mxCell id="M1Bvxkw2taFCZ_IBdg_y-158" style="rounded=0;orthogonalLoop=1;jettySize=auto;html=1;entryX=0;entryY=0.5;entryDx=0;entryDy=0;endArrow=none;endFill=0;" parent="1" source="M1Bvxkw2taFCZ_IBdg_y-45" target="M1Bvxkw2taFCZ_IBdg_y-30" edge="1">
          <mxGeometry relative="1" as="geometry" />
        </mxCell>
        <mxCell id="M1Bvxkw2taFCZ_IBdg_y-159" style="rounded=0;orthogonalLoop=1;jettySize=auto;html=1;entryX=0;entryY=0.5;entryDx=0;entryDy=0;endArrow=none;endFill=0;" parent="1" source="M1Bvxkw2taFCZ_IBdg_y-45" target="M1Bvxkw2taFCZ_IBdg_y-31" edge="1">
          <mxGeometry relative="1" as="geometry" />
        </mxCell>
        <mxCell id="M1Bvxkw2taFCZ_IBdg_y-45" value="1" style="ellipse;whiteSpace=wrap;html=1;aspect=fixed;" parent="1" vertex="1">
          <mxGeometry x="362.5" y="260" width="20" height="20" as="geometry" />
        </mxCell>
        <mxCell id="M1Bvxkw2taFCZ_IBdg_y-160" style="rounded=0;orthogonalLoop=1;jettySize=auto;html=1;entryX=0;entryY=0.5;entryDx=0;entryDy=0;endArrow=none;endFill=0;" parent="1" source="M1Bvxkw2taFCZ_IBdg_y-46" target="M1Bvxkw2taFCZ_IBdg_y-26" edge="1">
          <mxGeometry relative="1" as="geometry" />
        </mxCell>
        <mxCell id="M1Bvxkw2taFCZ_IBdg_y-161" style="rounded=0;orthogonalLoop=1;jettySize=auto;html=1;entryX=0;entryY=0.5;entryDx=0;entryDy=0;endArrow=none;endFill=0;" parent="1" source="M1Bvxkw2taFCZ_IBdg_y-46" target="M1Bvxkw2taFCZ_IBdg_y-27" edge="1">
          <mxGeometry relative="1" as="geometry" />
        </mxCell>
        <mxCell id="M1Bvxkw2taFCZ_IBdg_y-162" style="rounded=0;orthogonalLoop=1;jettySize=auto;html=1;entryX=0;entryY=0.5;entryDx=0;entryDy=0;endArrow=none;endFill=0;" parent="1" source="M1Bvxkw2taFCZ_IBdg_y-46" target="M1Bvxkw2taFCZ_IBdg_y-28" edge="1">
          <mxGeometry relative="1" as="geometry" />
        </mxCell>
        <mxCell id="M1Bvxkw2taFCZ_IBdg_y-163" style="rounded=0;orthogonalLoop=1;jettySize=auto;html=1;entryX=0;entryY=0.5;entryDx=0;entryDy=0;endArrow=none;endFill=0;" parent="1" source="M1Bvxkw2taFCZ_IBdg_y-46" target="M1Bvxkw2taFCZ_IBdg_y-29" edge="1">
          <mxGeometry relative="1" as="geometry" />
        </mxCell>
        <mxCell id="M1Bvxkw2taFCZ_IBdg_y-164" style="rounded=0;orthogonalLoop=1;jettySize=auto;html=1;entryX=0;entryY=0.5;entryDx=0;entryDy=0;endArrow=none;endFill=0;" parent="1" source="M1Bvxkw2taFCZ_IBdg_y-46" target="M1Bvxkw2taFCZ_IBdg_y-30" edge="1">
          <mxGeometry relative="1" as="geometry" />
        </mxCell>
        <mxCell id="M1Bvxkw2taFCZ_IBdg_y-165" style="rounded=0;orthogonalLoop=1;jettySize=auto;html=1;entryX=0;entryY=0.5;entryDx=0;entryDy=0;endArrow=none;endFill=0;" parent="1" source="M1Bvxkw2taFCZ_IBdg_y-46" target="M1Bvxkw2taFCZ_IBdg_y-31" edge="1">
          <mxGeometry relative="1" as="geometry" />
        </mxCell>
        <mxCell id="M1Bvxkw2taFCZ_IBdg_y-46" value="2" style="ellipse;whiteSpace=wrap;html=1;aspect=fixed;" parent="1" vertex="1">
          <mxGeometry x="362.5" y="300" width="20" height="20" as="geometry" />
        </mxCell>
        <mxCell id="M1Bvxkw2taFCZ_IBdg_y-166" style="rounded=0;orthogonalLoop=1;jettySize=auto;html=1;entryX=0;entryY=0.5;entryDx=0;entryDy=0;endArrow=none;endFill=0;" parent="1" source="M1Bvxkw2taFCZ_IBdg_y-47" target="M1Bvxkw2taFCZ_IBdg_y-26" edge="1">
          <mxGeometry relative="1" as="geometry" />
        </mxCell>
        <mxCell id="M1Bvxkw2taFCZ_IBdg_y-167" style="rounded=0;orthogonalLoop=1;jettySize=auto;html=1;entryX=0;entryY=0.5;entryDx=0;entryDy=0;endArrow=none;endFill=0;" parent="1" source="M1Bvxkw2taFCZ_IBdg_y-47" target="M1Bvxkw2taFCZ_IBdg_y-27" edge="1">
          <mxGeometry relative="1" as="geometry" />
        </mxCell>
        <mxCell id="M1Bvxkw2taFCZ_IBdg_y-168" style="rounded=0;orthogonalLoop=1;jettySize=auto;html=1;entryX=0;entryY=0.5;entryDx=0;entryDy=0;endArrow=none;endFill=0;" parent="1" source="M1Bvxkw2taFCZ_IBdg_y-47" target="M1Bvxkw2taFCZ_IBdg_y-28" edge="1">
          <mxGeometry relative="1" as="geometry" />
        </mxCell>
        <mxCell id="M1Bvxkw2taFCZ_IBdg_y-169" style="rounded=0;orthogonalLoop=1;jettySize=auto;html=1;entryX=0;entryY=0.5;entryDx=0;entryDy=0;endArrow=none;endFill=0;" parent="1" source="M1Bvxkw2taFCZ_IBdg_y-47" target="M1Bvxkw2taFCZ_IBdg_y-29" edge="1">
          <mxGeometry relative="1" as="geometry" />
        </mxCell>
        <mxCell id="M1Bvxkw2taFCZ_IBdg_y-171" style="rounded=0;orthogonalLoop=1;jettySize=auto;html=1;entryX=0;entryY=0.5;entryDx=0;entryDy=0;endArrow=none;endFill=0;" parent="1" source="M1Bvxkw2taFCZ_IBdg_y-47" target="M1Bvxkw2taFCZ_IBdg_y-30" edge="1">
          <mxGeometry relative="1" as="geometry" />
        </mxCell>
        <mxCell id="M1Bvxkw2taFCZ_IBdg_y-172" style="rounded=0;orthogonalLoop=1;jettySize=auto;html=1;entryX=0;entryY=0.5;entryDx=0;entryDy=0;endArrow=none;endFill=0;" parent="1" source="M1Bvxkw2taFCZ_IBdg_y-47" target="M1Bvxkw2taFCZ_IBdg_y-31" edge="1">
          <mxGeometry relative="1" as="geometry" />
        </mxCell>
        <mxCell id="M1Bvxkw2taFCZ_IBdg_y-47" value="3" style="ellipse;whiteSpace=wrap;html=1;aspect=fixed;" parent="1" vertex="1">
          <mxGeometry x="362.5" y="340" width="20" height="20" as="geometry" />
        </mxCell>
        <mxCell id="M1Bvxkw2taFCZ_IBdg_y-173" style="rounded=0;orthogonalLoop=1;jettySize=auto;html=1;entryX=0;entryY=0.5;entryDx=0;entryDy=0;endArrow=none;endFill=0;" parent="1" source="M1Bvxkw2taFCZ_IBdg_y-48" target="M1Bvxkw2taFCZ_IBdg_y-26" edge="1">
          <mxGeometry relative="1" as="geometry" />
        </mxCell>
        <mxCell id="M1Bvxkw2taFCZ_IBdg_y-174" style="rounded=0;orthogonalLoop=1;jettySize=auto;html=1;entryX=0;entryY=0.5;entryDx=0;entryDy=0;endArrow=none;endFill=0;" parent="1" source="M1Bvxkw2taFCZ_IBdg_y-48" target="M1Bvxkw2taFCZ_IBdg_y-27" edge="1">
          <mxGeometry relative="1" as="geometry" />
        </mxCell>
        <mxCell id="M1Bvxkw2taFCZ_IBdg_y-175" style="rounded=0;orthogonalLoop=1;jettySize=auto;html=1;entryX=0;entryY=0.5;entryDx=0;entryDy=0;endArrow=none;endFill=0;" parent="1" source="M1Bvxkw2taFCZ_IBdg_y-48" target="M1Bvxkw2taFCZ_IBdg_y-28" edge="1">
          <mxGeometry relative="1" as="geometry" />
        </mxCell>
        <mxCell id="M1Bvxkw2taFCZ_IBdg_y-176" style="rounded=0;orthogonalLoop=1;jettySize=auto;html=1;entryX=0;entryY=0.5;entryDx=0;entryDy=0;endArrow=none;endFill=0;" parent="1" source="M1Bvxkw2taFCZ_IBdg_y-48" target="M1Bvxkw2taFCZ_IBdg_y-29" edge="1">
          <mxGeometry relative="1" as="geometry" />
        </mxCell>
        <mxCell id="M1Bvxkw2taFCZ_IBdg_y-177" style="rounded=0;orthogonalLoop=1;jettySize=auto;html=1;entryX=0;entryY=0.5;entryDx=0;entryDy=0;endArrow=none;endFill=0;" parent="1" source="M1Bvxkw2taFCZ_IBdg_y-48" target="M1Bvxkw2taFCZ_IBdg_y-30" edge="1">
          <mxGeometry relative="1" as="geometry" />
        </mxCell>
        <mxCell id="M1Bvxkw2taFCZ_IBdg_y-178" style="rounded=0;orthogonalLoop=1;jettySize=auto;html=1;entryX=0;entryY=0.5;entryDx=0;entryDy=0;endArrow=none;endFill=0;" parent="1" source="M1Bvxkw2taFCZ_IBdg_y-48" target="M1Bvxkw2taFCZ_IBdg_y-31" edge="1">
          <mxGeometry relative="1" as="geometry" />
        </mxCell>
        <mxCell id="M1Bvxkw2taFCZ_IBdg_y-48" value="4" style="ellipse;whiteSpace=wrap;html=1;aspect=fixed;" parent="1" vertex="1">
          <mxGeometry x="362.5" y="380" width="20" height="20" as="geometry" />
        </mxCell>
        <mxCell id="M1Bvxkw2taFCZ_IBdg_y-179" style="rounded=0;orthogonalLoop=1;jettySize=auto;html=1;entryX=0;entryY=0.5;entryDx=0;entryDy=0;endArrow=none;endFill=0;" parent="1" source="M1Bvxkw2taFCZ_IBdg_y-49" target="M1Bvxkw2taFCZ_IBdg_y-26" edge="1">
          <mxGeometry relative="1" as="geometry" />
        </mxCell>
        <mxCell id="M1Bvxkw2taFCZ_IBdg_y-180" style="rounded=0;orthogonalLoop=1;jettySize=auto;html=1;entryX=0;entryY=0.5;entryDx=0;entryDy=0;endArrow=none;endFill=0;" parent="1" source="M1Bvxkw2taFCZ_IBdg_y-49" target="M1Bvxkw2taFCZ_IBdg_y-27" edge="1">
          <mxGeometry relative="1" as="geometry" />
        </mxCell>
        <mxCell id="M1Bvxkw2taFCZ_IBdg_y-181" style="rounded=0;orthogonalLoop=1;jettySize=auto;html=1;entryX=0;entryY=0.5;entryDx=0;entryDy=0;endArrow=none;endFill=0;" parent="1" source="M1Bvxkw2taFCZ_IBdg_y-49" target="M1Bvxkw2taFCZ_IBdg_y-28" edge="1">
          <mxGeometry relative="1" as="geometry" />
        </mxCell>
        <mxCell id="M1Bvxkw2taFCZ_IBdg_y-182" style="rounded=0;orthogonalLoop=1;jettySize=auto;html=1;entryX=0;entryY=0.5;entryDx=0;entryDy=0;endArrow=none;endFill=0;" parent="1" source="M1Bvxkw2taFCZ_IBdg_y-49" target="M1Bvxkw2taFCZ_IBdg_y-29" edge="1">
          <mxGeometry relative="1" as="geometry" />
        </mxCell>
        <mxCell id="M1Bvxkw2taFCZ_IBdg_y-183" style="rounded=0;orthogonalLoop=1;jettySize=auto;html=1;entryX=0;entryY=0.5;entryDx=0;entryDy=0;endArrow=none;endFill=0;" parent="1" source="M1Bvxkw2taFCZ_IBdg_y-49" target="M1Bvxkw2taFCZ_IBdg_y-30" edge="1">
          <mxGeometry relative="1" as="geometry" />
        </mxCell>
        <mxCell id="M1Bvxkw2taFCZ_IBdg_y-184" style="rounded=0;orthogonalLoop=1;jettySize=auto;html=1;entryX=0;entryY=0.5;entryDx=0;entryDy=0;endArrow=none;endFill=0;" parent="1" source="M1Bvxkw2taFCZ_IBdg_y-49" target="M1Bvxkw2taFCZ_IBdg_y-31" edge="1">
          <mxGeometry relative="1" as="geometry" />
        </mxCell>
        <mxCell id="M1Bvxkw2taFCZ_IBdg_y-49" value="5" style="ellipse;whiteSpace=wrap;html=1;aspect=fixed;" parent="1" vertex="1">
          <mxGeometry x="362.5" y="420" width="20" height="20" as="geometry" />
        </mxCell>
        <mxCell id="M1Bvxkw2taFCZ_IBdg_y-54" value="..." style="text;html=1;strokeColor=none;fillColor=none;align=center;verticalAlign=middle;whiteSpace=wrap;rounded=0;rotation=90;fontSize=25;" parent="1" vertex="1">
          <mxGeometry x="352.5" y="445" width="60" height="55" as="geometry" />
        </mxCell>
        <mxCell id="M1Bvxkw2taFCZ_IBdg_y-55" value="255" style="ellipse;whiteSpace=wrap;html=1;aspect=fixed;" parent="1" vertex="1">
          <mxGeometry x="360" y="507.5" width="25" height="25" as="geometry" />
        </mxCell>
        <mxCell id="M1Bvxkw2taFCZ_IBdg_y-99" style="rounded=0;orthogonalLoop=1;jettySize=auto;html=1;entryX=0;entryY=0.5;entryDx=0;entryDy=0;strokeColor=default;endArrow=none;endFill=0;" parent="1" source="M1Bvxkw2taFCZ_IBdg_y-56" target="M1Bvxkw2taFCZ_IBdg_y-44" edge="1">
          <mxGeometry relative="1" as="geometry" />
        </mxCell>
        <mxCell id="4fpsvbwNy2UrWsXOMBY3-11" value="w&lt;font size=&quot;1&quot;&gt;&lt;sub&gt;0&lt;/sub&gt;&lt;/font&gt;" style="edgeLabel;html=1;align=center;verticalAlign=middle;resizable=0;points=[];" parent="M1Bvxkw2taFCZ_IBdg_y-99" vertex="1" connectable="0">
          <mxGeometry x="-0.0935" relative="1" as="geometry">
            <mxPoint x="2" y="-11" as="offset" />
          </mxGeometry>
        </mxCell>
        <mxCell id="M1Bvxkw2taFCZ_IBdg_y-100" style="rounded=0;orthogonalLoop=1;jettySize=auto;html=1;entryX=0;entryY=0.5;entryDx=0;entryDy=0;strokeColor=default;endArrow=none;endFill=0;" parent="1" source="M1Bvxkw2taFCZ_IBdg_y-56" target="M1Bvxkw2taFCZ_IBdg_y-45" edge="1">
          <mxGeometry relative="1" as="geometry" />
        </mxCell>
        <mxCell id="M1Bvxkw2taFCZ_IBdg_y-101" style="rounded=0;orthogonalLoop=1;jettySize=auto;html=1;entryX=0;entryY=0.5;entryDx=0;entryDy=0;strokeColor=default;endArrow=none;endFill=0;" parent="1" source="M1Bvxkw2taFCZ_IBdg_y-56" target="M1Bvxkw2taFCZ_IBdg_y-46" edge="1">
          <mxGeometry relative="1" as="geometry" />
        </mxCell>
        <mxCell id="M1Bvxkw2taFCZ_IBdg_y-102" style="rounded=0;orthogonalLoop=1;jettySize=auto;html=1;entryX=0;entryY=0.5;entryDx=0;entryDy=0;strokeColor=default;endArrow=none;endFill=0;" parent="1" source="M1Bvxkw2taFCZ_IBdg_y-56" target="M1Bvxkw2taFCZ_IBdg_y-47" edge="1">
          <mxGeometry relative="1" as="geometry" />
        </mxCell>
        <mxCell id="M1Bvxkw2taFCZ_IBdg_y-103" style="rounded=0;orthogonalLoop=1;jettySize=auto;html=1;entryX=0;entryY=0.5;entryDx=0;entryDy=0;strokeColor=default;endArrow=none;endFill=0;" parent="1" source="M1Bvxkw2taFCZ_IBdg_y-56" target="M1Bvxkw2taFCZ_IBdg_y-48" edge="1">
          <mxGeometry relative="1" as="geometry" />
        </mxCell>
        <mxCell id="M1Bvxkw2taFCZ_IBdg_y-104" style="rounded=0;orthogonalLoop=1;jettySize=auto;html=1;entryX=0;entryY=0.5;entryDx=0;entryDy=0;strokeColor=default;endArrow=none;endFill=0;" parent="1" source="M1Bvxkw2taFCZ_IBdg_y-56" target="M1Bvxkw2taFCZ_IBdg_y-49" edge="1">
          <mxGeometry relative="1" as="geometry" />
        </mxCell>
        <mxCell id="M1Bvxkw2taFCZ_IBdg_y-56" value="0" style="ellipse;whiteSpace=wrap;html=1;aspect=fixed;" parent="1" vertex="1">
          <mxGeometry x="280" y="180" width="20" height="20" as="geometry" />
        </mxCell>
        <mxCell id="M1Bvxkw2taFCZ_IBdg_y-108" style="rounded=0;orthogonalLoop=1;jettySize=auto;html=1;entryX=0;entryY=0.5;entryDx=0;entryDy=0;endArrow=none;endFill=0;" parent="1" source="M1Bvxkw2taFCZ_IBdg_y-57" target="M1Bvxkw2taFCZ_IBdg_y-44" edge="1">
          <mxGeometry relative="1" as="geometry" />
        </mxCell>
        <mxCell id="M1Bvxkw2taFCZ_IBdg_y-110" style="rounded=0;orthogonalLoop=1;jettySize=auto;html=1;entryX=0;entryY=0.5;entryDx=0;entryDy=0;endArrow=none;endFill=0;" parent="1" source="M1Bvxkw2taFCZ_IBdg_y-57" target="M1Bvxkw2taFCZ_IBdg_y-45" edge="1">
          <mxGeometry relative="1" as="geometry" />
        </mxCell>
        <mxCell id="M1Bvxkw2taFCZ_IBdg_y-111" style="rounded=0;orthogonalLoop=1;jettySize=auto;html=1;entryX=0;entryY=0.5;entryDx=0;entryDy=0;endArrow=none;endFill=0;" parent="1" source="M1Bvxkw2taFCZ_IBdg_y-57" target="M1Bvxkw2taFCZ_IBdg_y-46" edge="1">
          <mxGeometry relative="1" as="geometry" />
        </mxCell>
        <mxCell id="M1Bvxkw2taFCZ_IBdg_y-112" style="rounded=0;orthogonalLoop=1;jettySize=auto;html=1;entryX=0;entryY=0.5;entryDx=0;entryDy=0;endArrow=none;endFill=0;" parent="1" source="M1Bvxkw2taFCZ_IBdg_y-57" target="M1Bvxkw2taFCZ_IBdg_y-47" edge="1">
          <mxGeometry relative="1" as="geometry" />
        </mxCell>
        <mxCell id="M1Bvxkw2taFCZ_IBdg_y-113" style="rounded=0;orthogonalLoop=1;jettySize=auto;html=1;entryX=0;entryY=0.5;entryDx=0;entryDy=0;endArrow=none;endFill=0;" parent="1" source="M1Bvxkw2taFCZ_IBdg_y-57" target="M1Bvxkw2taFCZ_IBdg_y-48" edge="1">
          <mxGeometry relative="1" as="geometry" />
        </mxCell>
        <mxCell id="M1Bvxkw2taFCZ_IBdg_y-114" style="rounded=0;orthogonalLoop=1;jettySize=auto;html=1;entryX=0;entryY=0.5;entryDx=0;entryDy=0;endArrow=none;endFill=0;" parent="1" source="M1Bvxkw2taFCZ_IBdg_y-57" target="M1Bvxkw2taFCZ_IBdg_y-49" edge="1">
          <mxGeometry relative="1" as="geometry" />
        </mxCell>
        <mxCell id="M1Bvxkw2taFCZ_IBdg_y-57" value="1" style="ellipse;whiteSpace=wrap;html=1;aspect=fixed;" parent="1" vertex="1">
          <mxGeometry x="280" y="220" width="20" height="20" as="geometry" />
        </mxCell>
        <mxCell id="M1Bvxkw2taFCZ_IBdg_y-116" style="rounded=0;orthogonalLoop=1;jettySize=auto;html=1;entryX=0;entryY=0.5;entryDx=0;entryDy=0;endArrow=none;endFill=0;" parent="1" source="M1Bvxkw2taFCZ_IBdg_y-58" target="M1Bvxkw2taFCZ_IBdg_y-44" edge="1">
          <mxGeometry relative="1" as="geometry" />
        </mxCell>
        <mxCell id="M1Bvxkw2taFCZ_IBdg_y-117" style="rounded=0;orthogonalLoop=1;jettySize=auto;html=1;entryX=0;entryY=0.5;entryDx=0;entryDy=0;endArrow=none;endFill=0;" parent="1" source="M1Bvxkw2taFCZ_IBdg_y-58" target="M1Bvxkw2taFCZ_IBdg_y-45" edge="1">
          <mxGeometry relative="1" as="geometry" />
        </mxCell>
        <mxCell id="M1Bvxkw2taFCZ_IBdg_y-118" style="rounded=0;orthogonalLoop=1;jettySize=auto;html=1;entryX=0;entryY=0.5;entryDx=0;entryDy=0;endArrow=none;endFill=0;" parent="1" source="M1Bvxkw2taFCZ_IBdg_y-58" target="M1Bvxkw2taFCZ_IBdg_y-46" edge="1">
          <mxGeometry relative="1" as="geometry" />
        </mxCell>
        <mxCell id="M1Bvxkw2taFCZ_IBdg_y-119" style="rounded=0;orthogonalLoop=1;jettySize=auto;html=1;entryX=0;entryY=0.5;entryDx=0;entryDy=0;endArrow=none;endFill=0;" parent="1" source="M1Bvxkw2taFCZ_IBdg_y-58" target="M1Bvxkw2taFCZ_IBdg_y-47" edge="1">
          <mxGeometry relative="1" as="geometry" />
        </mxCell>
        <mxCell id="M1Bvxkw2taFCZ_IBdg_y-120" style="rounded=0;orthogonalLoop=1;jettySize=auto;html=1;entryX=0;entryY=0.5;entryDx=0;entryDy=0;endArrow=none;endFill=0;" parent="1" source="M1Bvxkw2taFCZ_IBdg_y-58" target="M1Bvxkw2taFCZ_IBdg_y-48" edge="1">
          <mxGeometry relative="1" as="geometry" />
        </mxCell>
        <mxCell id="M1Bvxkw2taFCZ_IBdg_y-121" style="rounded=0;orthogonalLoop=1;jettySize=auto;html=1;entryX=0;entryY=0.5;entryDx=0;entryDy=0;endArrow=none;endFill=0;" parent="1" source="M1Bvxkw2taFCZ_IBdg_y-58" target="M1Bvxkw2taFCZ_IBdg_y-49" edge="1">
          <mxGeometry relative="1" as="geometry" />
        </mxCell>
        <mxCell id="M1Bvxkw2taFCZ_IBdg_y-58" value="2" style="ellipse;whiteSpace=wrap;html=1;aspect=fixed;" parent="1" vertex="1">
          <mxGeometry x="280" y="260" width="20" height="20" as="geometry" />
        </mxCell>
        <mxCell id="M1Bvxkw2taFCZ_IBdg_y-122" style="rounded=0;orthogonalLoop=1;jettySize=auto;html=1;entryX=0;entryY=0.5;entryDx=0;entryDy=0;endArrow=none;endFill=0;" parent="1" source="M1Bvxkw2taFCZ_IBdg_y-59" target="M1Bvxkw2taFCZ_IBdg_y-44" edge="1">
          <mxGeometry relative="1" as="geometry" />
        </mxCell>
        <mxCell id="M1Bvxkw2taFCZ_IBdg_y-123" style="rounded=0;orthogonalLoop=1;jettySize=auto;html=1;entryX=0;entryY=0.5;entryDx=0;entryDy=0;endArrow=none;endFill=0;" parent="1" source="M1Bvxkw2taFCZ_IBdg_y-59" target="M1Bvxkw2taFCZ_IBdg_y-45" edge="1">
          <mxGeometry relative="1" as="geometry" />
        </mxCell>
        <mxCell id="M1Bvxkw2taFCZ_IBdg_y-124" style="rounded=0;orthogonalLoop=1;jettySize=auto;html=1;entryX=0;entryY=0.5;entryDx=0;entryDy=0;endArrow=none;endFill=0;" parent="1" source="M1Bvxkw2taFCZ_IBdg_y-59" target="M1Bvxkw2taFCZ_IBdg_y-46" edge="1">
          <mxGeometry relative="1" as="geometry" />
        </mxCell>
        <mxCell id="M1Bvxkw2taFCZ_IBdg_y-125" style="rounded=0;orthogonalLoop=1;jettySize=auto;html=1;entryX=0;entryY=0.5;entryDx=0;entryDy=0;endArrow=none;endFill=0;" parent="1" source="M1Bvxkw2taFCZ_IBdg_y-59" target="M1Bvxkw2taFCZ_IBdg_y-47" edge="1">
          <mxGeometry relative="1" as="geometry" />
        </mxCell>
        <mxCell id="M1Bvxkw2taFCZ_IBdg_y-126" style="rounded=0;orthogonalLoop=1;jettySize=auto;html=1;entryX=0;entryY=0.5;entryDx=0;entryDy=0;endArrow=none;endFill=0;" parent="1" source="M1Bvxkw2taFCZ_IBdg_y-59" target="M1Bvxkw2taFCZ_IBdg_y-48" edge="1">
          <mxGeometry relative="1" as="geometry" />
        </mxCell>
        <mxCell id="M1Bvxkw2taFCZ_IBdg_y-127" style="rounded=0;orthogonalLoop=1;jettySize=auto;html=1;entryX=0;entryY=0.5;entryDx=0;entryDy=0;endArrow=none;endFill=0;" parent="1" source="M1Bvxkw2taFCZ_IBdg_y-59" target="M1Bvxkw2taFCZ_IBdg_y-49" edge="1">
          <mxGeometry relative="1" as="geometry" />
        </mxCell>
        <mxCell id="M1Bvxkw2taFCZ_IBdg_y-59" value="3" style="ellipse;whiteSpace=wrap;html=1;aspect=fixed;" parent="1" vertex="1">
          <mxGeometry x="280" y="300" width="20" height="20" as="geometry" />
        </mxCell>
        <mxCell id="M1Bvxkw2taFCZ_IBdg_y-134" style="rounded=0;orthogonalLoop=1;jettySize=auto;html=1;entryX=0;entryY=0.5;entryDx=0;entryDy=0;endArrow=none;endFill=0;" parent="1" source="M1Bvxkw2taFCZ_IBdg_y-60" target="M1Bvxkw2taFCZ_IBdg_y-44" edge="1">
          <mxGeometry relative="1" as="geometry" />
        </mxCell>
        <mxCell id="M1Bvxkw2taFCZ_IBdg_y-135" style="rounded=0;orthogonalLoop=1;jettySize=auto;html=1;entryX=0;entryY=0.5;entryDx=0;entryDy=0;endArrow=none;endFill=0;" parent="1" source="M1Bvxkw2taFCZ_IBdg_y-60" target="M1Bvxkw2taFCZ_IBdg_y-45" edge="1">
          <mxGeometry relative="1" as="geometry" />
        </mxCell>
        <mxCell id="M1Bvxkw2taFCZ_IBdg_y-136" style="rounded=0;orthogonalLoop=1;jettySize=auto;html=1;entryX=0;entryY=0.5;entryDx=0;entryDy=0;endArrow=none;endFill=0;" parent="1" source="M1Bvxkw2taFCZ_IBdg_y-60" target="M1Bvxkw2taFCZ_IBdg_y-46" edge="1">
          <mxGeometry relative="1" as="geometry" />
        </mxCell>
        <mxCell id="M1Bvxkw2taFCZ_IBdg_y-137" style="rounded=0;orthogonalLoop=1;jettySize=auto;html=1;entryX=0;entryY=0.5;entryDx=0;entryDy=0;endArrow=none;endFill=0;" parent="1" source="M1Bvxkw2taFCZ_IBdg_y-60" target="M1Bvxkw2taFCZ_IBdg_y-47" edge="1">
          <mxGeometry relative="1" as="geometry" />
        </mxCell>
        <mxCell id="M1Bvxkw2taFCZ_IBdg_y-138" style="rounded=0;orthogonalLoop=1;jettySize=auto;html=1;entryX=0;entryY=0.5;entryDx=0;entryDy=0;endArrow=none;endFill=0;" parent="1" source="M1Bvxkw2taFCZ_IBdg_y-60" target="M1Bvxkw2taFCZ_IBdg_y-48" edge="1">
          <mxGeometry relative="1" as="geometry" />
        </mxCell>
        <mxCell id="M1Bvxkw2taFCZ_IBdg_y-139" style="rounded=0;orthogonalLoop=1;jettySize=auto;html=1;entryX=0;entryY=0.5;entryDx=0;entryDy=0;endArrow=none;endFill=0;" parent="1" source="M1Bvxkw2taFCZ_IBdg_y-60" target="M1Bvxkw2taFCZ_IBdg_y-49" edge="1">
          <mxGeometry relative="1" as="geometry" />
        </mxCell>
        <mxCell id="M1Bvxkw2taFCZ_IBdg_y-60" value="4" style="ellipse;whiteSpace=wrap;html=1;aspect=fixed;" parent="1" vertex="1">
          <mxGeometry x="280" y="340" width="20" height="20" as="geometry" />
        </mxCell>
        <mxCell id="M1Bvxkw2taFCZ_IBdg_y-140" style="rounded=0;orthogonalLoop=1;jettySize=auto;html=1;entryX=0;entryY=0.5;entryDx=0;entryDy=0;endArrow=none;endFill=0;" parent="1" source="M1Bvxkw2taFCZ_IBdg_y-61" target="M1Bvxkw2taFCZ_IBdg_y-44" edge="1">
          <mxGeometry relative="1" as="geometry" />
        </mxCell>
        <mxCell id="M1Bvxkw2taFCZ_IBdg_y-141" style="rounded=0;orthogonalLoop=1;jettySize=auto;html=1;entryX=0;entryY=0.5;entryDx=0;entryDy=0;endArrow=none;endFill=0;" parent="1" source="M1Bvxkw2taFCZ_IBdg_y-61" target="M1Bvxkw2taFCZ_IBdg_y-45" edge="1">
          <mxGeometry relative="1" as="geometry" />
        </mxCell>
        <mxCell id="M1Bvxkw2taFCZ_IBdg_y-142" style="rounded=0;orthogonalLoop=1;jettySize=auto;html=1;entryX=0;entryY=0.5;entryDx=0;entryDy=0;endArrow=none;endFill=0;" parent="1" source="M1Bvxkw2taFCZ_IBdg_y-61" target="M1Bvxkw2taFCZ_IBdg_y-46" edge="1">
          <mxGeometry relative="1" as="geometry" />
        </mxCell>
        <mxCell id="M1Bvxkw2taFCZ_IBdg_y-143" style="rounded=0;orthogonalLoop=1;jettySize=auto;html=1;entryX=0;entryY=0.5;entryDx=0;entryDy=0;endArrow=none;endFill=0;" parent="1" source="M1Bvxkw2taFCZ_IBdg_y-61" target="M1Bvxkw2taFCZ_IBdg_y-47" edge="1">
          <mxGeometry relative="1" as="geometry" />
        </mxCell>
        <mxCell id="M1Bvxkw2taFCZ_IBdg_y-144" style="rounded=0;orthogonalLoop=1;jettySize=auto;html=1;entryX=0;entryY=0.5;entryDx=0;entryDy=0;endArrow=none;endFill=0;" parent="1" source="M1Bvxkw2taFCZ_IBdg_y-61" target="M1Bvxkw2taFCZ_IBdg_y-48" edge="1">
          <mxGeometry relative="1" as="geometry" />
        </mxCell>
        <mxCell id="M1Bvxkw2taFCZ_IBdg_y-145" style="rounded=0;orthogonalLoop=1;jettySize=auto;html=1;entryX=0;entryY=0.5;entryDx=0;entryDy=0;endArrow=none;endFill=0;" parent="1" source="M1Bvxkw2taFCZ_IBdg_y-61" target="M1Bvxkw2taFCZ_IBdg_y-49" edge="1">
          <mxGeometry relative="1" as="geometry" />
        </mxCell>
        <mxCell id="4fpsvbwNy2UrWsXOMBY3-12" value="w&lt;font size=&quot;1&quot;&gt;&lt;sub&gt;n&lt;/sub&gt;&lt;/font&gt;" style="edgeLabel;html=1;align=center;verticalAlign=middle;resizable=0;points=[];" parent="M1Bvxkw2taFCZ_IBdg_y-145" vertex="1" connectable="0">
          <mxGeometry x="0.0856" y="-1" relative="1" as="geometry">
            <mxPoint x="-7" y="11" as="offset" />
          </mxGeometry>
        </mxCell>
        <mxCell id="M1Bvxkw2taFCZ_IBdg_y-61" value="5" style="ellipse;whiteSpace=wrap;html=1;aspect=fixed;" parent="1" vertex="1">
          <mxGeometry x="280" y="380" width="20" height="20" as="geometry" />
        </mxCell>
        <mxCell id="M1Bvxkw2taFCZ_IBdg_y-66" value="783" style="ellipse;whiteSpace=wrap;html=1;aspect=fixed;" parent="1" vertex="1">
          <mxGeometry x="277.5" y="470" width="25" height="25" as="geometry" />
        </mxCell>
        <mxCell id="M1Bvxkw2taFCZ_IBdg_y-67" value="..." style="text;html=1;strokeColor=none;fillColor=none;align=center;verticalAlign=middle;whiteSpace=wrap;rounded=0;rotation=90;fontSize=25;" parent="1" vertex="1">
          <mxGeometry x="270" y="405" width="60" height="55" as="geometry" />
        </mxCell>
        <mxCell id="M1Bvxkw2taFCZ_IBdg_y-76" value="Output Layer" style="text;html=1;strokeColor=none;fillColor=none;align=center;verticalAlign=middle;whiteSpace=wrap;rounded=0;" parent="1" vertex="1">
          <mxGeometry x="581.5" y="255" width="60" height="30" as="geometry" />
        </mxCell>
        <mxCell id="M1Bvxkw2taFCZ_IBdg_y-78" value="Input Layer" style="text;html=1;strokeColor=none;fillColor=none;align=center;verticalAlign=middle;whiteSpace=wrap;rounded=0;" parent="1" vertex="1">
          <mxGeometry x="260" y="120" width="60" height="30" as="geometry" />
        </mxCell>
        <mxCell id="M1Bvxkw2taFCZ_IBdg_y-81" value="Hidden Layers" style="text;html=1;strokeColor=none;fillColor=none;align=center;verticalAlign=middle;whiteSpace=wrap;rounded=0;" parent="1" vertex="1">
          <mxGeometry x="424" y="130" width="60" height="30" as="geometry" />
        </mxCell>
        <mxCell id="4fpsvbwNy2UrWsXOMBY3-8" style="edgeStyle=orthogonalEdgeStyle;rounded=0;orthogonalLoop=1;jettySize=auto;html=1;entryX=0.5;entryY=0;entryDx=0;entryDy=0;" parent="1" source="4fpsvbwNy2UrWsXOMBY3-6" target="M1Bvxkw2taFCZ_IBdg_y-26" edge="1">
          <mxGeometry relative="1" as="geometry" />
        </mxCell>
        <mxCell id="4fpsvbwNy2UrWsXOMBY3-6" value="b&lt;sub&gt;(1,0)&lt;/sub&gt;" style="text;html=1;align=center;verticalAlign=middle;resizable=0;points=[];autosize=1;strokeColor=none;fillColor=none;" parent="1" vertex="1">
          <mxGeometry x="429" y="210" width="50" height="30" as="geometry" />
        </mxCell>
        <mxCell id="4fpsvbwNy2UrWsXOMBY3-9" style="edgeStyle=orthogonalEdgeStyle;rounded=0;orthogonalLoop=1;jettySize=auto;html=1;entryX=0.5;entryY=0;entryDx=0;entryDy=0;" parent="1" source="4fpsvbwNy2UrWsXOMBY3-7" target="M1Bvxkw2taFCZ_IBdg_y-12" edge="1">
          <mxGeometry relative="1" as="geometry" />
        </mxCell>
        <mxCell id="4fpsvbwNy2UrWsXOMBY3-7" value="b&lt;sub&gt;(2, 0)&lt;/sub&gt;" style="text;html=1;align=center;verticalAlign=middle;resizable=0;points=[];autosize=1;strokeColor=none;fillColor=none;" parent="1" vertex="1">
          <mxGeometry x="511.5" y="240" width="50" height="30" as="geometry" />
        </mxCell>
        <mxCell id="4fpsvbwNy2UrWsXOMBY3-13" value="Total Weights: 242304&lt;br&gt;Total Biases: 458" style="text;html=1;align=center;verticalAlign=middle;resizable=0;points=[];autosize=1;strokeColor=none;fillColor=none;" parent="1" vertex="1">
          <mxGeometry x="180" y="565" width="140" height="40" as="geometry" />
        </mxCell>
        <mxCell id="4fpsvbwNy2UrWsXOMBY3-26" style="edgeStyle=orthogonalEdgeStyle;rounded=0;orthogonalLoop=1;jettySize=auto;html=1;entryX=0.5;entryY=0;entryDx=0;entryDy=0;" parent="1" source="4fpsvbwNy2UrWsXOMBY3-14" target="M1Bvxkw2taFCZ_IBdg_y-44" edge="1">
          <mxGeometry relative="1" as="geometry" />
        </mxCell>
        <mxCell id="4fpsvbwNy2UrWsXOMBY3-14" value="&lt;sub&gt;&lt;span style=&quot;font-size: 12px;&quot;&gt;b&lt;/span&gt;(0,0)&lt;/sub&gt;" style="text;html=1;align=center;verticalAlign=middle;resizable=0;points=[];autosize=1;strokeColor=none;fillColor=none;" parent="1" vertex="1">
          <mxGeometry x="347.5" y="170" width="50" height="30" as="geometry" />
        </mxCell>
        <mxCell id="4fpsvbwNy2UrWsXOMBY3-19" style="edgeStyle=orthogonalEdgeStyle;rounded=0;orthogonalLoop=1;jettySize=auto;html=1;entryX=0.5;entryY=1;entryDx=0;entryDy=0;" parent="1" source="4fpsvbwNy2UrWsXOMBY3-16" target="M1Bvxkw2taFCZ_IBdg_y-55" edge="1">
          <mxGeometry relative="1" as="geometry" />
        </mxCell>
        <mxCell id="4fpsvbwNy2UrWsXOMBY3-16" value="b&lt;sub&gt;(0, 255)&lt;/sub&gt;" style="text;html=1;align=center;verticalAlign=middle;resizable=0;points=[];autosize=1;strokeColor=none;fillColor=none;" parent="1" vertex="1">
          <mxGeometry x="342.5" y="560" width="60" height="30" as="geometry" />
        </mxCell>
        <mxCell id="4fpsvbwNy2UrWsXOMBY3-22" style="edgeStyle=orthogonalEdgeStyle;rounded=0;orthogonalLoop=1;jettySize=auto;html=1;entryX=0.5;entryY=1;entryDx=0;entryDy=0;" parent="1" source="4fpsvbwNy2UrWsXOMBY3-20" target="M1Bvxkw2taFCZ_IBdg_y-36" edge="1">
          <mxGeometry relative="1" as="geometry" />
        </mxCell>
        <mxCell id="4fpsvbwNy2UrWsXOMBY3-20" value="b&lt;sub&gt;(1, 127)&lt;/sub&gt;" style="text;html=1;align=center;verticalAlign=middle;resizable=0;points=[];autosize=1;strokeColor=none;fillColor=none;" parent="1" vertex="1">
          <mxGeometry x="424" y="590" width="60" height="30" as="geometry" />
        </mxCell>
        <mxCell id="4fpsvbwNy2UrWsXOMBY3-24" style="edgeStyle=orthogonalEdgeStyle;rounded=0;orthogonalLoop=1;jettySize=auto;html=1;entryX=0.5;entryY=1;entryDx=0;entryDy=0;" parent="1" source="4fpsvbwNy2UrWsXOMBY3-23" target="M1Bvxkw2taFCZ_IBdg_y-25" edge="1">
          <mxGeometry relative="1" as="geometry" />
        </mxCell>
        <mxCell id="4fpsvbwNy2UrWsXOMBY3-23" value="b&lt;sub&gt;(2, 63)&lt;/sub&gt;" style="text;html=1;align=center;verticalAlign=middle;resizable=0;points=[];autosize=1;strokeColor=none;fillColor=none;" parent="1" vertex="1">
          <mxGeometry x="506.5" y="640" width="60" height="30" as="geometry" />
        </mxCell>
        <mxCell id="4fpsvbwNy2UrWsXOMBY3-28" style="edgeStyle=orthogonalEdgeStyle;rounded=0;orthogonalLoop=1;jettySize=auto;html=1;entryX=0.5;entryY=0;entryDx=0;entryDy=0;" parent="1" source="4fpsvbwNy2UrWsXOMBY3-27" target="M1Bvxkw2taFCZ_IBdg_y-1" edge="1">
          <mxGeometry relative="1" as="geometry" />
        </mxCell>
        <mxCell id="4fpsvbwNy2UrWsXOMBY3-27" value="&lt;sub&gt;&lt;span style=&quot;font-size: 12px;&quot;&gt;b&lt;/span&gt;(3,0)&lt;/sub&gt;" style="text;html=1;align=center;verticalAlign=middle;resizable=0;points=[];autosize=1;strokeColor=none;fillColor=none;" parent="1" vertex="1">
          <mxGeometry x="586.5" y="290" width="50" height="30" as="geometry" />
        </mxCell>
        <mxCell id="4fpsvbwNy2UrWsXOMBY3-31" style="edgeStyle=orthogonalEdgeStyle;rounded=0;orthogonalLoop=1;jettySize=auto;html=1;entryX=0.5;entryY=1;entryDx=0;entryDy=0;" parent="1" source="4fpsvbwNy2UrWsXOMBY3-29" target="M1Bvxkw2taFCZ_IBdg_y-11" edge="1">
          <mxGeometry relative="1" as="geometry" />
        </mxCell>
        <mxCell id="4fpsvbwNy2UrWsXOMBY3-29" value="&lt;sub&gt;&lt;span style=&quot;font-size: 12px;&quot;&gt;b&lt;/span&gt;(3,9)&lt;/sub&gt;" style="text;html=1;align=center;verticalAlign=middle;resizable=0;points=[];autosize=1;strokeColor=none;fillColor=none;" parent="1" vertex="1">
          <mxGeometry x="586.5" y="740" width="50" height="30" as="geometry" />
        </mxCell>
      </root>
    </mxGraphModel>
  </diagram>
</mxfile>
